<?xml version="1.0" encoding="utf-8"?>
<svg version="1.1" xmlns="http://www.w3.org/2000/svg" xmlns:xlink="http://www.w3.org/1999/xlink" viewBox="0 0 100 100" xml:space="preserve">
<path d="M50.8,57.2l11.8-11.8c0.8-0.8,0.2-2.1-0.9-2h-5.9V20.9c0-0.7-0.5-1.2-1.2-1.2h-9.5c-0.7,0-1.2,0.5-1.2,1.2v22.5H38
	c-1.1,0-1.6,1.3-0.9,2l11.8,11.8C49.6,57.7,50.4,57.7,50.8,57.2z"/>
<path d="M76.3,61.6H23.7c-3.1,0-5.6,2.5-5.6,5.6v7.5c0,3.1,2.5,5.6,5.6,5.6h52.7c3.1,0,5.6-2.5,5.6-5.6v-7.5
	C81.9,64.1,79.4,61.6,76.3,61.6z M64.9,73.2c-1.2,0-2.2-1-2.2-2.2s1-2.2,2.2-2.2s2.2,1,2.2,2.2S66.1,73.2,64.9,73.2z M72.6,73.2
	c-1.2,0-2.2-1-2.2-2.2s1-2.2,2.2-2.2s2.2,1,2.2,2.2S73.8,73.2,72.6,73.2z"/>
</svg>
