<?xml version="1.0" encoding="utf-8"?>
<svg version="1.1" id="Layer_1" xmlns="http://www.w3.org/2000/svg" xmlns:xlink="http://www.w3.org/1999/xlink" viewBox="0 0 18.4 21" xml:space="preserve">
<path opacity="0.1" d="M10.2,2.4H4.6C4,2.4,3.5,2.9,3.5,3.5c0,0,0,0,0,0v14c0,0.6,0.5,1.1,1.1,1.1c0,0,0,0,0,0h9.1
	c0.6,0,1.1-0.5,1.1-1.1V7L10.2,2.4z"/>
<path d="M14.9,7.5h-2.7c-1.2,0-2.2-1-2.2-2.2V2.6c0-0.1,0.1-0.2,0.2-0.2s0.2,0.1,0.2,0.2v2.7c0,1,0.8,1.7,1.7,1.8h2.7
	c0.1,0,0.2,0.1,0.2,0.2S15,7.5,14.9,7.5L14.9,7.5z"/>
<path d="M13.8,18.9H4.6c-0.8,0-1.4-0.6-1.4-1.4l0,0v-14c0-0.8,0.6-1.4,1.3-1.4c0,0,0,0,0,0h5.6c0.1,0,0.1,0,0.2,0.1l4.7,4.7
	c0,0,0.1,0.1,0.1,0.2v10.5C15.1,18.3,14.5,18.9,13.8,18.9C13.8,18.9,13.8,18.9,13.8,18.9z M4.6,2.6C4.2,2.6,3.8,3,3.8,3.5v14
	c0,0.5,0.4,0.9,0.9,0.9h9.1c0.5,0,0.9-0.4,0.9-0.9V7.1l-4.5-4.5H4.6z"/>
<path opacity="0.45" d="M10.2,2.6v2.7c0,1.1,0.9,2,2,2h2.7"/>
<path d="M5.5,7.6h3.6c0.1,0,0.3-0.1,0.3-0.3c0-0.1-0.1-0.3-0.3-0.3H5.5c-0.1,0-0.3,0.1-0.3,0.3C5.2,7.5,5.4,7.6,5.5,7.6z M5.5,9.8
	h3.6c0.1,0,0.3-0.1,0.3-0.3S9.2,9.3,9.1,9.3H5.5c-0.1,0-0.3,0.1-0.3,0.3S5.4,9.8,5.5,9.8z M13.1,11.7C13.1,11.7,13.1,11.7,13.1,11.7
	C13.1,11.7,13.1,11.7,13.1,11.7L13.1,11.7L13,11.6l0,0l0,0h-0.1c0,0,0,0,0,0H5.5c-0.1,0-0.3,0.1-0.3,0.3v4.5c0,0,0,0,0,0.1
	c0,0,0,0,0,0c0,0,0,0,0,0c0,0,0,0,0,0c0,0,0,0,0.1,0h0c0,0,0.1,0,0.1,0h7.4c0.1,0,0.3-0.1,0.3-0.3L13.1,11.7
	C13.1,11.8,13.1,11.8,13.1,11.7z M12,12.1l-6.2,3.8v-3.8H12z M6.4,16l6.2-3.8V16H6.4z"/>
</svg>
