<svg xmlns="http://www.w3.org/2000/svg" viewBox="0 0 128 128"><g><path  d="M68.45,36.7l-22,16H35.94a5.17,5.17,0,0,0-4.88,5.39V69.91a5.17,5.17,0,0,0,4.88,5.39H46.49l22,16c2,1.43,4.59-.12,4.59-2.72V39.42C73,36.82,70.42,35.27,68.45,36.7Z"/><path  d="M84.11,87.2a2,2,0,0,1-1.78-1.09,2,2,0,0,1,.87-2.69A21.46,21.46,0,0,0,94.94,64.23v-.46A21.62,21.62,0,0,0,82.47,44.22a2,2,0,0,1,1.68-3.63A25.63,25.63,0,0,1,98.94,63.77v.46A25.44,25.44,0,0,1,85,87,2.09,2.09,0,0,1,84.11,87.2Z"/><path  d="M80.47,76.83a2,2,0,0,1-1.11-3.66,10.82,10.82,0,0,0,4.87-9v-.26a10.83,10.83,0,0,0-4.78-9,2,2,0,0,1,2.24-3.31,14.82,14.82,0,0,1,6.54,12.29v.26A14.79,14.79,0,0,1,81.57,76.5,1.94,1.94,0,0,1,80.47,76.83Z"/></g></svg>