<svg xmlns="http://www.w3.org/2000/svg" viewBox="0 0 128 128"><g><path  d="M94.45,45.79,74.58,33.4a1,1,0,0,0-.53-.15h-.23a1,1,0,0,0-.59.19c-.47.31-7.45,4.72-13.07,8.26l-6,3.79-.09,0a1.43,1.43,0,0,1-.31-.16c-6-3.74-18.45-11.88-19-12.24a1,1,0,0,0-1-.18,1,1,0,0,0-.65.73c0,.2-.11.49-.11,48a1,1,0,0,0,.51.88c.49.28,12.82,7.88,18.87,11.7a2.67,2.67,0,0,0,3.21,0q4.92-3.12,9.86-6.21L73.63,83c.33-.21.35-.21.69,0q7.5,4.74,15,9.43l4,2.52a1,1,0,0,0,.53.15,1,1,0,0,0,.49-.12,1,1,0,0,0,.51-.88V46.64A1,1,0,0,0,94.45,45.79Zm-22-7.46V79.42L56,89.67V48.58Z"/></g></svg>