<?xml version="1.0" encoding="utf-8"?>
<svg version="1.1" xmlns="http://www.w3.org/2000/svg" xmlns:xlink="http://www.w3.org/1999/xlink" viewBox="0 0 100 100" xml:space="preserve">
<g>
	<path d="M55.7,54.3c-1.2,0-2.1,0.9-2.1,2.1c0,1.2,0.9,2.1,2.1,2.1v0c0,0,0,0,0,0c1.2,0,2.1-1,2.1-2.1
		C57.8,55.2,56.9,54.3,55.7,54.3z"/>
	<path d="M42.6,45.1c-1.2,0-2.1,0.9-2.1,2.1c0,1.2,0.9,2.1,2.1,2.1c1.2,0,2.1-0.9,2.1-2.1C44.8,46.1,43.8,45.1,42.6,45.1z"/>
	<path d="M33.5,55.6c-1.2,0-2.1,0.9-2.1,2.1s0.9,2.1,2.1,2.1c1.2,0,2.1-0.9,2.1-2.1C35.6,56.5,34.7,55.6,33.5,55.6z"/>
	<path d="M78.5,21.3H61.6c-0.6-2-2.4-3.3-4.4-3.3H47.1c-2.1,0-3.9,1.4-4.4,3.3H26.5c-2.4,0-4.4,2-4.4,4.4v39.7
		c0,2.6,2.1,4.6,4.6,4.6h23v6h-8.5c-2.4,0-4.3,1.9-4.3,4.3c0,0.3,0,0.6,0.1,0.9c0.1,0.5,0.5,0.8,1,0.8h27.3c0.5,0,0.9-0.3,1-0.8
		c0.1-0.3,0.1-0.6,0.1-0.9c0-2.4-1.9-4.3-4.3-4.3h-7.5v-6h21.7c3.4,0,6.2-2.8,6.2-6.2V25.5C82.7,23.2,80.8,21.3,78.5,21.3z
		 M70.1,44.3c-0.6,0-1.2-0.2-1.7-0.5l-9.7,10.3c0.5,0.6,0.7,1.4,0.7,2.2c0,2-1.6,3.6-3.6,3.6s-3.6-1.6-3.6-3.6c0-0.5,0.1-1,0.4-1.4
		l-7.4-5c-0.7,0.6-1.5,0.9-2.4,0.9c-0.8,0-1.7-0.3-2.3-0.9l-4.3,5.2c0.7,0.7,1,1.6,1,2.5c0,2-1.6,3.6-3.6,3.6s-3.6-1.6-3.6-3.6
		s1.6-3.6,3.6-3.6c0.5,0,0.9,0.1,1.4,0.3l4.5-5.6l0.1,0.1c-0.3-0.5-0.4-1.1-0.4-1.6c0-0.5,0.1-1,0.3-1.5c0.8-1.8,3-2.6,4.8-1.8
		c1.8,0.8,2.6,3,1.8,4.8l7.4,5c1.1-1,2.8-1.2,4.1-0.5l9.8-10.4c-0.5-0.6-0.7-1.4-0.7-2.2c0-2,1.6-3.6,3.6-3.6h0c2,0,3.6,1.6,3.6,3.6
		C73.7,42.7,72.1,44.3,70.1,44.3z M79.8,30.2L79.8,30.2H25.2v-4.5c0-0.8,0.6-1.4,1.4-1.4h16.2c0.6,1.9,2.4,3.2,4.4,3.2h10.1
		c2,0,3.8-1.3,4.4-3.2h17c0.6,0,1.1,0.5,1.1-0.9V30.2z"/>
	<path d="M70.1,38.6c-1.2,0-2.1,0.9-2.1,2.1s0.9,2.1,2.1,2.1c1.2,0,2.1-0.9,2.1-2.1S71.3,38.6,70.1,38.6z"/>
</g>
</svg>
