<svg width="100" height="100" viewBox="0 0 100 100" fill="none" xmlns="http://www.w3.org/2000/svg">
<path opacity="0.45" d="M76.3351 41.6872V39.6878C76.3649 39.0958 76.264 38.5045 76.0382 37.9481C75.8128 37.3918 75.4669 36.8817 75.0213 36.4475C74.5756 36.0132 74.039 35.6636 73.4427 35.4189C72.846 35.1743 72.2018 35.0395 71.5469 35.0224H52.3944L45.2123 30.557H28.4538C27.1675 30.5832 25.9442 31.0663 25.0482 31.9018C24.1523 32.7374 23.6557 33.8583 23.6657 35.0224V41.6872H76.3351Z" fill="black"/>
<path opacity="0.1" d="M23.6657 42.7537V65.014C23.6608 65.5875 23.7808 66.156 24.0188 66.6872C24.2568 67.2187 24.6082 67.7023 25.0528 68.1108C25.4974 68.5194 26.0266 68.8443 26.6102 69.0679C27.1937 69.2911 27.8202 69.4084 28.4538 69.4128H71.5469C72.1808 69.4084 72.8073 69.2911 73.3907 69.0679C73.9741 68.8443 74.5034 68.5194 74.948 68.1108C75.3925 67.7023 75.7439 67.2187 75.9818 66.6872C76.2201 66.156 76.3398 65.5875 76.3351 65.014V42.7537H23.6657Z" fill="black"/>
<path d="M71.5467 70.3125H28.4535C27.6912 70.3128 26.9366 70.1749 26.2342 69.9069C25.5318 69.639 24.8958 69.2468 24.3637 68.7529C23.8316 68.2591 23.4142 67.6739 23.1361 67.0317C22.858 66.3896 22.7249 65.7034 22.7446 65.014V35.0224C22.7249 34.3329 22.858 33.6469 23.1361 33.0048C23.4142 32.3626 23.8316 31.7774 24.3637 31.2836C24.8958 30.7897 25.5318 30.3973 26.2342 30.1294C26.9366 29.8615 27.6912 29.7236 28.4535 29.7239H45.212C45.3797 29.6754 45.5599 29.6754 45.7276 29.7239L52.6519 34.0227H71.5467C73.0579 34.0314 74.5042 34.5784 75.5727 35.5452C76.6416 36.512 77.246 37.8207 77.2556 39.1879V65.014C77.2755 65.7034 77.1421 66.3896 76.8641 67.0317C76.586 67.6739 76.1687 68.2591 75.6365 68.7529C75.1046 69.2468 74.4685 69.639 73.7661 69.9069C73.0638 70.1749 72.3091 70.3128 71.5467 70.3125ZM28.4535 31.3901C27.9254 31.3641 27.3972 31.4414 26.9051 31.6167C26.4129 31.7919 25.9682 32.061 25.6013 32.4056C25.2343 32.7503 24.9537 33.1624 24.7786 33.6139C24.6034 34.0655 24.5378 34.5459 24.5862 35.0224V65.014C24.5597 65.4798 24.6416 65.9454 24.8266 66.3809C25.0116 66.8161 25.2955 67.2117 25.6601 67.5413C26.0246 67.8712 26.4616 68.1281 26.9428 68.2954C27.424 68.463 27.9387 68.537 28.4535 68.513H71.5467C72.0616 68.537 72.5761 68.463 73.0575 68.2954C73.5385 68.1281 73.9757 67.8712 74.34 67.5413C74.7046 67.2117 74.9886 66.8161 75.1735 66.3809C75.3588 65.9454 75.4405 65.4798 75.414 65.014V39.1879C75.358 38.2919 74.9271 37.4488 74.2089 36.8298C73.4903 36.2109 72.5385 35.8625 71.5467 35.8555H52.3941C52.2265 35.904 52.0464 35.904 51.8785 35.8555L44.9173 31.3901H28.4535Z" fill="black"/>
<path d="M23.9229 41.354H76.5922V43.0202H23.9229V41.354Z" fill="black"/>
<path d="M37.421 54.4297C36.586 54.4297 35.9091 55.0422 35.9091 55.7976C35.9091 56.5531 36.586 57.1655 37.421 57.1655V54.4297ZM63.6482 56.765C64.2385 56.2306 64.2385 55.3646 63.6482 54.8302L54.0264 46.1249C53.4362 45.5908 52.4786 45.5908 51.8884 46.1249C51.2977 46.6592 51.2977 47.5253 51.8884 48.0595L60.441 55.7976L51.8884 63.5357C51.2977 64.0701 51.2977 64.936 51.8884 65.4701C52.4786 66.0045 53.4362 66.0045 54.0264 65.4701L63.6482 56.765ZM37.421 57.1655H62.579V54.4297H37.421V57.1655Z" fill="black"/>
</svg>
