<?xml version="1.0" encoding="utf-8"?>
<svg version="1.1" id="Layer_1" xmlns="http://www.w3.org/2000/svg" xmlns:xlink="http://www.w3.org/1999/xlink" viewBox="0 0 100 100" xml:space="preserve">
<g>
	<path d="M67,41.1l-0.9,8.5c0,0.3-0.2,0.6-0.5,0.7c-0.2,0.1-0.3,0.1-0.5,0.2c-0.1,0-0.2,0-0.3,0l-8.2-2.8c-0.1,0.5-0.1,0.9-0.1,1.4
		c0,4.4,3.4,8,7.7,8.2v0l0.5,0c3.9,0,7.2-2.8,8-6.5c0.5-2.2,0-4.4-1.2-6.2C70.6,42.8,68.9,41.6,67,41.1z"/>
	<path d="M65,40.8c-0.1,0-0.1,0-0.2,0l0,0c-3.3,0-6.2,1.9-7.5,4.9l7,2.4L65,40.8z"/>
	<path d="M78.5,21.3H61.6c-0.6-2-2.4-3.3-4.4-3.3H47.1c-2.1,0-3.9,1.4-4.4,3.3H26.5c-2.4,0-4.4,2-4.4,4.4v39.7
		c0,2.6,2.1,4.6,4.6,4.6h23v6h-8.5c-2.4,0-4.3,1.9-4.3,4.3c0,0.3,0,0.6,0.1,0.9c0.1,0.5,0.5,0.8,1,0.8h27.3c0.5,0,0.9-0.3,1-0.8
		c0.1-0.3,0.1-0.6,0.1-0.9c0-2.4-1.9-4.3-4.3-4.3h-7.5v-6h21.7c3.4,0,6.2-2.8,6.2-6.2V25.5C82.7,23.2,80.8,21.3,78.5,21.3z M47.8,57
		h-17c-0.7,0-1.2-0.6-1.2-1.2s0.6-1.2,1.2-1.2h17c0.7,0,1.2,0.6,1.2,1.2S48.5,57,47.8,57z M47.8,50.5h-17c-0.7,0-1.2-0.6-1.2-1.2
		s0.6-1.2,1.2-1.2h17c0.7,0,1.2,0.6,1.2,1.2S48.5,50.5,47.8,50.5z M47.8,43.9h-17c-0.7,0-1.2-0.6-1.2-1.2s0.6-1.2,1.2-1.2h17
		c0.7,0,1.2,0.6,1.2,1.2S48.5,43.9,47.8,43.9z M64.8,59.8C64.7,59.8,64.7,59.8,64.8,59.8c-6,0-10.8-4.9-10.8-10.8
		c0-5.9,4.8-10.7,10.8-10.7c0,0,0,0,0,0c5.9,0,10.7,4.8,10.7,10.7C75.5,55,70.7,59.8,64.8,59.8z M79.7,30.2H25.2v-4.5
		c0-0.8,0.6-1.4,1.4-1.4h16.2c0.6,1.9,2.4,3.2,4.4,3.2h10.1c2,0,3.8-1.3,4.4-3.2h17c0.6,0,1.1,0.5,1.1-0.9V30.2z"/>
</g>
</svg>
