<?xml version="1.0" encoding="utf-8"?>
<svg version="1.1" xmlns="http://www.w3.org/2000/svg" xmlns:xlink="http://www.w3.org/1999/xlink" viewBox="0 0 100 100" xml:space="preserve">
<path d="M33.1,38.7H18.4c-0.9,0-1.6,0.7-1.6,1.6v27.5c0,0.9,0.7,1.6,1.6,1.6h14.6c0.9,0,1.6-0.7,1.6-1.6V40.3
	C34.7,39.4,33.9,38.7,33.1,38.7z"/>
<g>
	<polygon points="81,33.2 66.1,33.1 81,50.9 	"/>
	<polygon points="64.9,34.1 64.9,51.8 79.7,51.8 	"/>
	<path d="M83.3,19.3H36.8c-4.2,0-7.6,4.6-7.6,8.4V33h2.7c0.1,0,3.2,0,5.5,1.5c2.4,1.6,2.4,4.6,2.4,4.7v27.1h7.7H48h23h0.3h12.1
		c4.1,0,7.9-3.7,7.9-7.6v-31C91.3,24,87.5,19.3,83.3,19.3z M59.3,53.2H44.1c-0.4,0-0.8-0.3-0.8-0.8c0-0.4,0.3-0.8,0.8-0.8h15.2
		c0.4,0,0.8,0.3,0.8,0.8C60,52.9,59.7,53.2,59.3,53.2z M59.3,46.5H44.1c-0.4,0-0.8-0.3-0.8-0.8c0-0.4,0.3-0.8,0.8-0.8h15.2
		c0.4,0,0.8,0.3,0.8,0.8C60,46.2,59.7,46.5,59.3,46.5z M59.3,39.8H44.1c-0.4,0-0.8-0.3-0.8-0.8c0-0.4,0.3-0.8,0.8-0.8h15.2
		c0.4,0,0.8,0.3,0.8,0.8C60,39.5,59.7,39.8,59.3,39.8z M59.3,33.1H44.1c-0.4,0-0.8-0.3-0.8-0.8c0-0.4,0.3-0.8,0.8-0.8h15.2
		c0.4,0,0.8,0.3,0.8,0.8C60,32.8,59.7,33.1,59.3,33.1z M82.5,53.3H63.4V31.7h1.2l0.1-0.2l0.1,0.2h17.6V53.3z"/>
</g>
<path d="M48,70.8c0,1.6-1.8,2.9-4,2.9h-0.2c-1.9,0-3.5,1.6-3.5,3.5s1.6,3.5,3.5,3.5h33c1.9,0,3.5-1.6,3.5-3.5s-1.6-3.5-3.5-3.5h-1.9
	c-2.1,0-3.9-1.3-3.9-2.9V68H48V70.8z"/>
<path d="M38.6,39.2c0,0,0-2.5-1.9-3.7c-2-1.3-4.8-1.3-4.9-1.3h-2.7v0H18.1c-3,0-5.4,2.4-5.4,5.4v34c0,3,2.4,5.4,5.3,5.4c0,0,0,0,0,0
	h15.1c3,0,5.4-2.4,5.4-5.4v-7.1h0V39.2z M25.5,77c-1,0-1.9-0.8-1.9-1.9c0-1,0.8-1.9,1.9-1.9c0,0,0,0,0,0c1,0,1.9,0.8,1.9,1.9
	C27.3,76.2,26.5,77,25.5,77z M36.2,67.8c0,1.7-1.4,3.1-3.1,3.1H18.4c-1.7,0-3.1-1.4-3.1-3.1V40.3c0-1.7,1.4-3.1,3.1-3.1h14.6
	c1.7,0,3.1,1.4,3.1,3.1V67.8z"/>
</svg>
