<?xml version="1.0" encoding="utf-8"?>
<svg version="1.1" xmlns="http://www.w3.org/2000/svg" xmlns:xlink="http://www.w3.org/1999/xlink" viewBox="0 0 100 100" xml:space="preserve">
<path d="M87.6,44.3c0-1.2-0.4-2.2-1.3-3.1c-0.8-0.8-1.9-1.3-3.1-1.3c-1.1,0-2.3,0.5-3.1,1.3c-1.7,1.7-1.7,4.4,0,6.1
	c0.6,0.6,1.3,1,2.2,1.2v2.4l-14.7,9.3V40.4l4.5-2.8v-3.7c0.7-0.2,1.3-0.6,1.8-1.1c1.7-1.7,1.7-4.4,0-6.1c-1.7-1.7-4.4-1.7-6.1,0
	c-0.8,0.8-1.3,1.9-1.3,3.1c0,1.2,0.4,2.2,1.3,3.1c0.5,0.5,1.2,0.9,2,1.1v2.4L51.1,48.1v-8.9l9.3-5.9v-7.1c0.8-0.2,1.4-0.6,2-1.1
	c1.7-1.7,1.7-4.4,0-6.1c-1.7-1.7-4.4-1.7-6.1,0h0c-1.7,1.7-1.7,4.4,0,6.1c0.5,0.5,1.1,0.9,1.8,1.1v5.8l-7,4.4V15.1
	c0.8-0.2,1.5-0.6,2-1.1c1.7-1.7,1.7-4.4,0-6.1c-1.7-1.7-4.4-1.7-6.1,0h0c-1.7,1.7-1.7,4.4,0,6.1c0.5,0.5,1.1,0.9,1.8,1.1v15.9
	l-7.2-4.6v-3.4c0.8-0.2,1.5-0.6,2-1.1c1.7-1.7,1.7-4.4,0-6.1c-1.7-1.7-4.4-1.7-6.1,0c-0.8,0.8-1.3,1.9-1.3,3.1
	c0,1.2,0.5,2.2,1.3,3.1c0.5,0.5,1.1,0.9,1.8,1.1v4.8l9.6,6v21.1l-7.7-4.2v-7.8c0.8-0.2,1.5-0.6,2-1.1c1.7-1.7,1.7-4.4,0-6.1
	c-1.7-1.7-4.4-1.7-6.1,0c-0.8,0.8-1.3,1.9-1.3,3.1c0,1.2,0.5,2.2,1.3,3.1c0.5,0.5,1.1,0.8,1.8,1v6.6L27,42.8v-6.2
	c0.8-0.2,1.4-0.6,2-1.1c0.8-0.8,1.3-1.9,1.3-3.1c0-1.2-0.5-2.2-1.3-3.1c-1.7-1.7-4.4-1.7-6.1,0c-1.7,1.7-1.7,4.4,0,6.1
	c0.5,0.5,1.1,0.9,1.8,1.1v7.6l3.6,2v13.6L17.8,54v-2.4c0.8-0.2,1.5-0.6,2-1.1c1.7-1.7,1.7-4.4,0-6.1c-0.8-0.8-1.9-1.3-3.1-1.3
	c-1.1,0-2.3,0.5-3.1,1.3c-1.7,1.7-1.7,4.4,0,6.1c0.5,0.5,1.1,0.8,1.7,1v3.8l33.4,18.3V85c-0.7,0.2-1.3,0.6-1.8,1.1
	c-1.7,1.7-1.7,4.4,0,6.1c0.8,0.8,1.9,1.3,3.1,1.3c1.1,0,2.3-0.5,3.1-1.3c1.7-1.7,1.7-4.4,0-6.1c-0.6-0.5-1.2-0.9-2-1.1V73.4
	l33.6-21.2v-3.9c0.6-0.2,1.2-0.6,1.6-1C87.1,46.5,87.6,45.4,87.6,44.3L87.6,44.3z M30.5,61V47.3l18.3,10.1V71L30.5,61z M65.3,41.9
	v19.8l-14.2,9V50.9L65.3,41.9z"/>
</svg>
