<svg xmlns="http://www.w3.org/2000/svg" viewBox="0 0 128 128"><g><path  d="M87.79,30.78c-1,0-26.89,6.14-30.26,6.94a1,1,0,0,0-.72.22C54.66,38.28,46,39.77,45,40h-.17c-6.66-.26-10.45,2-12.47,3.95-2.79,2.69-4.21,6.63-4.21,11.71,0,9.61,4.75,14.57,9.46,16.13l.06,18.12a7.38,7.38,0,0,0,7,7.35c3,0,9.33,0,9.32-4.69l-2.06-21h5.84c.54.12,3.38.83,6.64,1.64,17.49,4.37,22.7,5.63,23.24,5.63,7.11,0,12.27-10,12.27-23.93S94.81,30.78,87.79,30.78ZM76.28,54.48c0-9.72,3.39-18.16,8.08-20.14,1.55-.35,1.91-.41,1.94-.41h.06c4.26,0,8.17,5.92,9.51,14.31a40.05,40.05,0,0,1,.48,6.25,33.3,33.3,0,0,1-3.12,14.79A13.42,13.42,0,0,1,90,73.57,5.64,5.64,0,0,1,86.36,75c-.07,0-.4-.05-2-.41C79.68,72.66,76.28,64.21,76.28,54.48Z"/><path  d="M81.87,46.14a3.26,3.26,0,0,0-.83.12l-.15,0,0,.16a42.9,42.9,0,0,0-.77,8.12,43.62,43.62,0,0,0,.73,7.92l0,.15.15,0a3.11,3.11,0,0,0,.87.13c2.82,0,5.11-3.74,5.11-8.34S84.69,46.14,81.87,46.14Z"/></g></svg>