<?xml version="1.0" encoding="utf-8"?>
<svg version="1.1" xmlns="http://www.w3.org/2000/svg" xmlns:xlink="http://www.w3.org/1999/xlink" viewBox="0 0 100 100" xml:space="preserve">
<g>
	<path d="M25.9,64.8l11.9,11.9l43.4-43.3l-7-7l1.8-1.8l7,7l0.4-0.4c3.2-3.2,3.3-8.4,0.1-11.6l-0.4-0.4c-2.2-2.2-5.5-2.9-8.4-1.9
		c-2.2-1.7-4.9-1.8-6.6-0.2l-23,23c-1.5,1.5-1.5,3.8-0.3,5.8L25.9,64.8z M47.3,42.2l23-23c0.2-0.2,0.5-0.3,0.8-0.3
		c0.8,0.1,1.6,0.5,2.2,1.1c1.1,1.1,1.3,2.5,0.8,3l-23,23c-0.5,0.5-2,0.3-3-0.8C47.1,44.1,46.8,42.7,47.3,42.2z"/>
	<path d="M24.2,66.6C24.1,66.7,24,66.9,24,67l-5.8,15c-0.3,0.8,0.1,1.6,0.9,1.9c0.2,0.1,0.3,0.1,0.5,0.1c0.1,0,0.3,0,0.4,0l15.7-5.3
		c0.2,0,0.3-0.1,0.4-0.2L24.2,66.6z"/>
</g>
</svg>
