<?xml version="1.0" encoding="utf-8"?>
<!-- Generator: Adobe Illustrator 24.1.0, SVG Export Plug-In . SVG Version: 6.00 Build 0)  -->
<svg version="1.1" xmlns="http://www.w3.org/2000/svg" xmlns:xlink="http://www.w3.org/1999/xlink" viewBox="0 0 100 100" xml:space="preserve">
<g>
	<path d="M54.2,48.8c0.1,0.4,0.2,0.8,0.2,1.2c0,2.1-1.5,3.9-3.5,4.4l0,25.8c1.3,0.3,2.4,1.2,3,2.4l22.3-13.4c0-0.1,0-0.1,0-0.2
		c0-2.1,1.4-3.8,3.3-4.3V37.3c-0.9-0.2-1.6-0.7-2.2-1.4L54.2,48.8z"/>
	<path d="M76.5,34.1c-0.1-0.4-0.2-0.8-0.2-1.2c0-0.5,0.1-0.9,0.2-1.4L53.5,18.1c-0.8,1-2.1,1.7-3.5,1.7c-1.3,0-2.4-0.5-3.2-1.4
		L23.9,32c0.1,0.3,0.1,0.6,0.1,1c0,0.4-0.1,0.7-0.1,1.1L46.7,47c0.8-0.9,2-1.5,3.3-1.5c1.3,0,2.5,0.6,3.3,1.5L76.5,34.1z"/>
	<path d="M45.5,50c0-0.4,0.1-0.9,0.2-1.3L23,35.8c-0.6,0.7-1.4,1.2-2.4,1.5l-0.1,27.3c2,0.4,3.5,2.2,3.5,4.4c0,0.4-0.1,0.8-0.2,1.1
		l22,12.5c0.6-1.3,1.7-2.2,3.1-2.5l0-25.7C47,53.9,45.5,52.1,45.5,50z"/>
	<path d="M84.2,63.5v-25c2-1.1,3.4-3.3,3.4-5.8c0-3.6-2.9-6.6-6.6-6.6c-1.2,0-2.3,0.3-3.2,0.8L56.5,14.7c0-3.5-2.8-6.3-6.3-6.5
		c0,0-0.1,0-0.1,0c-0.1,0-0.1,0-0.2,0c-3.6,0-6.6,2.9-6.6,6.6c0,0,0,0,0,0L22.6,27.2c-1-0.7-2.3-1.1-3.6-1.1c-3.6,0-6.6,2.9-6.6,6.6
		c0,2.5,1.4,4.6,3.4,5.8v25c-2,1.1-3.4,3.3-3.4,5.8c0,3.6,2.9,6.6,6.6,6.6c1.3,0,2.6-0.4,3.6-1.1l20.9,11.8c0.6,3,3.3,5.2,6.4,5.2
		c0.1,0,0.2,0,0.3,0c0.2,0,0.3,0,0.5,0c0.1,0,0.2-0.1,0.3-0.1c2.7-0.5,4.9-2.6,5.4-5.3l20.1-12.3c1.2,1.1,2.8,1.8,4.5,1.8
		c3.6,0,6.6-2.9,6.6-6.6C87.6,66.8,86.2,64.6,84.2,63.5z M80.8,73.5c-1.7,0-3.1-0.9-3.9-2.3L54.4,84.6C54.3,87,52.4,89,50,89
		c-2.4,0-4.3-1.9-4.5-4.3L23,71.9c-0.8,1-2,1.6-3.4,1.6c-2.5,0-4.5-2-4.5-4.5c0-2.1,1.5-3.9,3.4-4.3l0.1-27.3
		c-2-0.4-3.5-2.2-3.5-4.4c0-2.5,2-4.5,4.5-4.5c1.4,0,2.7,0.7,3.5,1.7l22.6-13.5c-0.1-0.4-0.2-0.9-0.2-1.4c0-2.5,2-4.5,4.5-4.5
		c2.5,0,4.5,2,4.5,4.5c0,0.3,0,0.7-0.1,1l23.2,13.5c0.8-0.8,2-1.4,3.2-1.4c2.5,0,4.5,2,4.5,4.5c0,2.2-1.6,4-3.6,4.4v27.3
		c2.1,0.4,3.6,2.2,3.6,4.4C85.3,71.5,83.3,73.5,80.8,73.5z"/>
</g>
</svg>
