<svg width="100" height="100" viewBox="0 0 100 100" fill="none" xmlns="http://www.w3.org/2000/svg">
<path opacity="0.1" d="M54.093 20.3435H31.5958C30.4089 20.3435 29.2706 20.7701 28.4313 21.5294C27.5921 22.2888 27.1205 23.3186 27.1205 24.3925V75.4615C27.1205 76.5354 27.5921 77.5652 28.4313 78.3247C29.2706 79.0838 30.4089 79.5106 31.5958 79.5106H68.4461C69.6262 79.5011 70.7539 79.0699 71.5844 78.3119C72.415 77.5535 72.881 76.5292 72.881 75.4615V37.2327L54.093 20.3435Z" fill="black"/>
<path d="M72.881 39.0202H62.1566C59.7718 38.9914 57.4954 38.114 55.8202 36.5779C54.1451 35.0418 53.2057 32.9706 53.2061 30.8127V21.1096C53.2061 20.8677 53.3121 20.6357 53.5012 20.4647C53.6903 20.2937 53.9467 20.1976 54.214 20.1976C54.4813 20.1976 54.7377 20.2937 54.9268 20.4647C55.1159 20.6357 55.2219 20.8677 55.2219 21.1096V30.8127C55.2215 32.4904 55.9468 34.1017 57.2431 35.3015C58.5389 36.5014 60.3028 37.1946 62.1566 37.2328H72.881C73.1484 37.2328 73.4048 37.3289 73.5939 37.4999C73.783 37.6709 73.889 37.9028 73.889 38.1447C73.889 38.3866 73.783 38.6185 73.5939 38.7895C73.4048 38.9606 73.1484 39.0567 72.881 39.0567V39.0202Z" fill="black"/>
<path d="M68.4461 80.5684H31.5959C30.1416 80.5684 28.7469 80.0457 27.7186 79.1155C26.6903 78.185 26.1127 76.9232 26.1127 75.6074V24.5385C26.0911 23.8748 26.217 23.214 26.4828 22.5951C26.7487 21.9763 27.1492 21.412 27.6605 20.9358C28.1718 20.4596 28.7836 20.081 29.4596 19.8227C30.1356 19.5643 30.862 19.4313 31.5959 19.4316H54.093C54.2297 19.4332 54.3644 19.4599 54.489 19.5101C54.6139 19.5602 54.726 19.6328 54.8188 19.7234L73.6068 36.7221C73.7003 36.8009 73.7741 36.8971 73.8229 37.0042C73.8716 37.1112 73.8942 37.2265 73.889 37.3422V75.6074C73.8942 76.2571 73.7575 76.9013 73.4862 77.5032C73.2153 78.1047 72.8149 78.6519 72.3093 79.1133C71.8034 79.5744 71.2014 79.9403 70.5386 80.1902C69.8754 80.44 69.1642 80.5684 68.4461 80.5684ZM31.5959 21.2555C30.6795 21.2649 29.8037 21.5985 29.1557 22.1848C28.5077 22.7711 28.139 23.5635 28.1285 24.3926V75.4615C28.139 76.2907 28.5077 77.083 29.1557 77.6692C29.8037 78.2557 30.6795 78.5891 31.5959 78.5986H68.4461C69.3589 78.5891 70.2302 78.2543 70.872 77.667C71.5135 77.0797 71.8731 76.2874 71.8731 75.4615V37.7435L53.6899 21.2555H31.5959Z" fill="black"/>
<path opacity="0.45" d="M54.093 21.1095V30.8126C54.093 32.7475 54.9425 34.6032 56.4549 35.9713C57.9672 37.3395 60.0181 38.1082 62.1566 38.1082H72.8811" fill="black"/>
<path d="M34.5591 35.8649H51.6941M34.5591 43.1604H49.3154M34.5591 50.456H34.837M61.4324 57.7516H63.7894M34.5591 57.7516H50.0704M34.5591 65.0471H63.7894" stroke="black" stroke-opacity="0.25" stroke-width="3" stroke-linecap="round"/>
<path d="M38.6745 48.8433C37.8395 48.8433 37.1626 49.4557 37.1626 50.2112C37.1626 50.9667 37.8395 51.5791 38.6745 51.5791V48.8433ZM64.9018 51.1786C65.492 50.6442 65.492 49.7782 64.9018 49.2438L55.28 40.5385C54.6897 40.0043 53.7322 40.0043 53.1419 40.5385C52.5513 41.0727 52.5513 41.9389 53.1419 42.473L61.6945 50.2112L53.1419 57.9492C52.5513 58.4836 52.5513 59.3496 53.1419 59.8837C53.7322 60.4181 54.6897 60.4181 55.28 59.8837L64.9018 51.1786ZM38.6745 51.5791H63.8326V48.8433H38.6745V51.5791Z" fill="black"/>
</svg>
