<svg xmlns="http://www.w3.org/2000/svg" viewBox="0 0 128 128"><g><path  d="M92.48,33.84h-57a4.1,4.1,0,0,0-4.08,4.08V90.08a4.1,4.1,0,0,0,4.08,4.08h57a4.1,4.1,0,0,0,4.08-4.08V37.92A4.1,4.1,0,0,0,92.48,33.84ZM85.12,77.41h-27a5.07,5.07,0,0,1-9.83,0H42.88a1.25,1.25,0,1,1,0-2.5h5.43a5.07,5.07,0,0,1,9.83,0h27a1.25,1.25,0,0,1,0,2.5Zm0-11.52h-8.2a5.07,5.07,0,0,1-9.84,0H42.88a1.25,1.25,0,0,1,0-2.5h24.2a5.07,5.07,0,0,1,9.84,0h8.2a1.25,1.25,0,0,1,0,2.5Zm0-12.8H57.71a5.07,5.07,0,0,1-9.83,0h-5a1.25,1.25,0,1,1,0-2.5h5a5.07,5.07,0,0,1,9.83,0H85.12a1.25,1.25,0,0,1,0,2.5Z"/></g></svg>