<svg xmlns="http://www.w3.org/2000/svg" viewBox="0 0 100 100"><path d="M77.06 50.26c-.08-4 2.1-6.58 5.75-8-.23-2.2-2.79-8.39-4.08-9.86-3.51 1.64-6.82 1.39-9.62-1.37s-3.06-6.15-1.41-9.73a33.2 33.2 0 0 0-9.91-4.08c-1.19 3.47-3.5 5.65-7.13 5.91-4.3.32-7.09-1.9-8.57-5.88a33.51 33.51 0 0 0-9.86 4.14c1.67 3.55 1.46 6.86-1.3 9.67s-6.14 3.1-9.73 1.45a33.27 33.27 0 0 0-4 9.9c3.57 1.33 5.73 3.79 5.8 7.59s-2 6.56-5.73 8a33 33 0 0 0 4.14 9.8c3.48-1.55 6.73-1.29 9.48 1.37s3.13 6 1.58 9.56a33.36 33.36 0 0 0 9.86 4c.06-.1.09-.17.12-.23a8.08 8.08 0 0 1 15.22-.19c.15.37.32.36.63.28a33.53 33.53 0 0 0 9-3.71c.16-.09.3-.2.42-.28-1.42-3.22-1.29-6.27 1-8.93 2.74-3.2 6.19-3.67 10-2a33.13 33.13 0 0 0 4.09-9.81c-3.53-1.36-5.67-3.78-5.75-7.6zM50 60.74a9.64 9.64 0 1 1 9.67-9.36A9.67 9.67 0 0 1 50 60.74z" fill="#3c3c3b"/></svg>