<?xml version="1.0" encoding="utf-8"?>
<svg version="1.1" xmlns="http://www.w3.org/2000/svg" xmlns:xlink="http://www.w3.org/1999/xlink" viewBox="0 0 100 100" xml:space="preserve">
<path d="M90,39.9c-0.4-2.6-2.8-4.3-5.4-3.9c-0.8,0.1-1.6,0.5-2.2,1l-8.2-5.4c0.2-0.7,0.2-1.3,0.1-2c-0.1-0.3-0.1-0.6-0.2-0.9
	l5.3-4.3c0.1,0.1,0.1,0.1,0.2,0.1c0.8,0.6,1.8,0.9,2.8,0.9c1.5,0,3-0.8,3.8-2c1.5-2.1,1.1-5.1-1.1-6.6c-1-0.7-2.3-1-3.5-0.8
	c-2.6,0.4-4.4,2.8-4,5.4c0,0,0,0,0,0.1c0,0.1,0.1,0.3,0.1,0.4l-5.6,4.6c-1-0.6-2.1-0.9-3.3-0.7c-0.2,0-0.4,0.1-0.6,0.2l-10-14.2
	c0.1-0.1,0.1-0.1,0.2-0.2c0.7-1,1.1-2.3,0.8-3.5c-0.4-2.6-2.8-4.4-5.4-4c-2.6,0.4-4.4,2.8-4,5.4c0.4,2.6,2.8,4.4,5.4,4
	c0.1,0,0.3-0.1,0.4-0.1l10.2,14.3c-0.7,1-1,2.3-0.9,3.5c0,0.1,0.1,0.3,0.1,0.4l-15,9.7L49.8,41c-1-0.7-2.3-1-3.5-0.8
	c-2.6,0.4-4.3,2.9-3.9,5.4c0.3,1.8,1.5,3.2,3.2,3.8L46,75.2c-0.8,0.3-1.6,0.8-2.1,1.5l-24.5-8.9c0-0.3,0-0.6,0-0.9
	c-0.2-1.2-0.9-2.4-1.9-3.1c-2.1-1.5-5.1-1.1-6.6,1s-1.1,5.1,1,6.6c0.8,0.6,1.8,0.9,2.8,0.9c1.4,0,2.8-0.7,3.7-1.8l24.4,8.9
	c0,0.3,0,0.6,0,0.9c0,0.2,0.1,0.3,0.1,0.5l-10.3,6.8l-0.1-0.1c-1-0.7-2.3-1-3.5-0.8c-2.6,0.4-4.4,2.9-3.9,5.4c0.4,2.3,2.3,4,4.7,4
	c0.3,0,0.5,0,0.8-0.1c2.6-0.4,4.3-2.8,3.9-5.4c0,0,0,0,0,0c0-0.2-0.1-0.3-0.1-0.5l10.3-6.8c1,0.8,2.4,1.2,3.7,1
	c1.6-0.3,3-1.3,3.6-2.8l12,1c0.6,2.5,3.2,4.1,5.7,3.4c2.5-0.6,4.1-3.2,3.4-5.7c-0.6-2.5-3.2-4.1-5.7-3.4c-1.4,0.4-2.6,1.4-3.2,2.7
	l-12-1c-0.4-1.6-1.6-2.9-3.1-3.4l-0.4-25.9c2.2-0.7,3.5-2.9,3.1-5.2c0-0.1-0.1-0.3-0.1-0.4l15-9.7c0.1,0,0.1,0.1,0.2,0.2
	c1,0.7,2.3,1.1,3.5,0.8c0.8-0.1,1.6-0.5,2.2-1l8.2,5.4c-0.7,2.5,0.8,5.1,3.3,5.8s5.1-0.8,5.8-3.3C90.1,41.3,90.1,40.6,90,39.9z"/>
</svg>
