<svg xmlns="http://www.w3.org/2000/svg" viewBox="0 0 128 128"><g><path  d="M98.73,41.87a12.86,12.86,0,0,0-25.19-4l-5.93.36a1.49,1.49,0,0,0-1,.43l-34,34.05c-2,1.73-4.67,4.42-4.81,8-.12,2.94,1.44,6,4.75,9.3L39.27,97c2.85,2.77,5.45,3.81,7.8,3.81,3.48,0,6.41-2.29,8.8-4.69L90,62a1.48,1.48,0,0,0,.44-1l.42-6.93C95.15,51.85,98.73,46.85,98.73,41.87ZM87.44,60.3,53.75,94c-4.13,4.14-7.49,5.6-12.36.88L34.66,88c-2.7-2.7-4-5-3.89-7.07.08-1.86,1.29-3.73,3.82-5.89l.08-.08L68.36,41.23,73,40.94c0,.31,0,.62,0,.93a13.53,13.53,0,0,0,.51,3.66l-.31.31a5.69,5.69,0,0,0,0,8l.47.47a5.67,5.67,0,0,0,8,0l.48-.48a5.69,5.69,0,0,0,0-8l-.48-.48A5.65,5.65,0,0,0,75.9,44a10.07,10.07,0,0,1-.23-2.13,9.82,9.82,0,0,1,.06-1.09l13-.79ZM74.25,47.62a13,13,0,0,0,2.53,3.61,1.31,1.31,0,0,0,.69.19,1.37,1.37,0,0,0,1.26-.88,2.08,2.08,0,0,0-.82-2.2,10.77,10.77,0,0,1-1.42-2.44,3.57,3.57,0,0,1,3.74.88l.48.47a3.71,3.71,0,0,1,0,5.21l-.48.47h0a3.68,3.68,0,0,1-5.2,0l-.48-.47a3.67,3.67,0,0,1-.3-4.84ZM91,51.94l0-.69A3.3,3.3,0,0,1,91,51.94Zm.08-1.2.74-12.26a1.48,1.48,0,0,0-.43-1.15,1.55,1.55,0,0,0-1.16-.44l-13.65.83a10.17,10.17,0,0,1,9.31-6.23A10.39,10.39,0,0,1,91,50.74Z"/><path  d="M65.75,58.49a1,1,0,0,0-1.42,0L41.19,81.64a1,1,0,0,0,0,1.41,1,1,0,0,0,.71.29,1,1,0,0,0,.7-.29L65.75,59.91A1,1,0,0,0,65.75,58.49Z"/><path  d="M69.07,63.23,45.92,86.37a1,1,0,0,0,0,1.42,1,1,0,0,0,.71.29,1,1,0,0,0,.71-.29L70.48,64.64a1,1,0,1,0-1.41-1.41Z"/></g></svg>