<svg xmlns="http://www.w3.org/2000/svg" viewBox="0 0 128 128"><defs><style>.cls-1{fill:#3c3c3b;}</style></defs><title>stroke_settings</title><g id="settings"><path class="cls-1" d="M64.08,56.87H64a7.14,7.14,0,0,0-5,2.06,7.07,7.07,0,0,0-2.11,5A7.15,7.15,0,0,0,64,71.13h0a7.13,7.13,0,0,0,.08-14.26ZM64,68.53A4.55,4.55,0,0,1,59.46,64a4.46,4.46,0,0,1,1.34-3.19A4.54,4.54,0,0,1,64,59.47h0a4.53,4.53,0,0,1,4.48,4.66A4.53,4.53,0,0,1,64,68.53Z"/><path class="cls-1" d="M97.71,70.75c-3.29-1.27-4.93-3.4-5-6.52-.07-3.28,1.56-5.52,5-6.85A1.3,1.3,0,0,0,98.53,56c-.25-2.51-3-9-4.45-10.71A1.32,1.32,0,0,0,92.55,45c-3.25,1.53-6,1.16-8.27-1.13s-2.71-5-1.17-8.39a1.28,1.28,0,0,0-.5-1.65,35,35,0,0,0-10.42-4.3,1.31,1.31,0,0,0-1.52.85c-1.11,3.22-3.11,4.9-6.1,5.12-3.57.27-6-1.41-7.36-5.12a1.31,1.31,0,0,0-1.53-.81A35.49,35.49,0,0,0,45.3,33.93a1.29,1.29,0,0,0-.48,1.65c1.56,3.29,1.21,6-1.07,8.33s-5,2.74-8.38,1.2a1.32,1.32,0,0,0-1.66.51A35.2,35.2,0,0,0,29.48,56a1.31,1.31,0,0,0,.82,1.51c3.34,1.22,5,3.35,5.07,6.51s-1.55,5.53-5,6.86a1.3,1.3,0,0,0-.79,1.52A34.91,34.91,0,0,0,34,82.74a1.3,1.3,0,0,0,1.63.5c3.23-1.44,5.9-1.07,8.16,1.14s2.75,5,1.32,8.23a1.3,1.3,0,0,0,.52,1.63A35.46,35.46,0,0,0,56,98.47l.26,0a1.43,1.43,0,0,0,1.23-.78,2.43,2.43,0,0,0,.14-.28,6.88,6.88,0,0,1,13-.17,1.7,1.7,0,0,0,2.16,1.06,35.47,35.47,0,0,0,9.44-3.91,3.22,3.22,0,0,0,.36-.24l.11-.07a1.29,1.29,0,0,0,.47-1.61c-1.32-3-1.06-5.51.8-7.68,2.29-2.66,5.12-3.22,8.67-1.71a1.3,1.3,0,0,0,1.61-.51,34.87,34.87,0,0,0,4.3-10.33A1.29,1.29,0,0,0,97.71,70.75ZM92.55,80.3A9.16,9.16,0,0,0,82,83.12a9.05,9.05,0,0,0-1.62,9.36,33,33,0,0,1-7.63,3.16A9.37,9.37,0,0,0,64,90.13h-.14a9.53,9.53,0,0,0-8.38,5.54,32.21,32.21,0,0,1-7.63-3.11,9.08,9.08,0,0,0-2.32-10,9.1,9.1,0,0,0-10-2.07,32.48,32.48,0,0,1-3.2-7.57,9.47,9.47,0,0,0-.12-17.32,32.32,32.32,0,0,1,3.09-7.62,9.08,9.08,0,0,0,10.23-2.2,9,9,0,0,0,2-10.17,32.73,32.73,0,0,1,7.6-3.18,9.12,9.12,0,0,0,9.53,5.71,9,9,0,0,0,7.93-5.75,32.33,32.33,0,0,1,7.61,3.14A9.49,9.49,0,0,0,92.64,47.79a37.39,37.39,0,0,1,3.13,7.59,9.49,9.49,0,0,0-.06,17.33A32.07,32.07,0,0,1,92.55,80.3Z"/><path class="cls-1" d="M64,46.92A17.08,17.08,0,1,0,81.08,64,17.1,17.1,0,0,0,64,46.92Zm0,32.66A15.58,15.58,0,1,1,79.58,64,15.6,15.6,0,0,1,64,79.58Z"/></g></svg>