<svg xmlns="http://www.w3.org/2000/svg" viewBox="0 0 128 128"><defs><style>.cls-1{fill:#3c3c3b;}</style></defs><title>stroke_mail</title><g id="mail"><path class="cls-1" d="M91.34,38.44H37.59c-4.43,0-8.77,4.33-8.77,8.75v34.4c0,4.25,4.1,8,8.77,8H91.34a7.82,7.82,0,0,0,7.84-8V47.19C99.18,43,96,38.44,91.34,38.44Zm-53.75,3H91.34a4.64,4.64,0,0,1,3.75,2.25L63.87,71.83,33.58,43.38A5.77,5.77,0,0,1,37.59,41.44ZM31.82,81.59V47.19A4.81,4.81,0,0,1,32.41,45l21,19.75L34,85.34A4.83,4.83,0,0,1,31.82,81.59Zm5.77,5a5.66,5.66,0,0,1-1.74-.28l19-20.13,8.94,8.4L73,66.27,92.37,86.45a4.93,4.93,0,0,1-1,.11Zm58.59-5a5.13,5.13,0,0,1-1.89,4L74.51,64.93,96,45.6a6.16,6.16,0,0,1,.22,1.59Z"/></g></svg>