<svg xmlns="http://www.w3.org/2000/svg" viewBox="0 0 128 128"><defs><style>.cls-1{fill:#3c3c3b;}</style></defs><title>stroke_clock</title><g id="clock"><path class="cls-1" d="M64,29.92A34.08,34.08,0,1,0,98.08,64,34.12,34.12,0,0,0,64,29.92Zm0,65.16A31.08,31.08,0,1,1,95.08,64,31.11,31.11,0,0,1,64,95.08Z"/><path class="cls-1" d="M88.36,71.91A4.57,4.57,0,0,0,86.2,70L68.36,62l0,.06a4.2,4.2,0,0,0-.36-.7l5.17-4.75-1-1.1L67.23,60V46.11a3.23,3.23,0,0,0-6.45,0V60.42a4.62,4.62,0,0,0-.59,6.07l-8.67,8a3.37,3.37,0,0,0-5.2,2.41,3.38,3.38,0,0,0,.39,2l-2.49,2.29,1,1.11L47.71,80a3.39,3.39,0,0,0,1.57.63l.42,0a3.34,3.34,0,0,0,2.07-.72A3.38,3.38,0,0,0,53,77.67a3.33,3.33,0,0,0-.47-2.14l8.69-8A4.56,4.56,0,0,0,66,68l17.62,7.86a4.87,4.87,0,0,0,1.93.42,3.2,3.2,0,0,0,3-1.74A2.94,2.94,0,0,0,88.36,71.91ZM62.28,46.11a1.73,1.73,0,0,1,3.45,0V59.47A4.52,4.52,0,0,0,64,59.13a4.61,4.61,0,0,0-1.71.33ZM51.55,77.49h0a1.88,1.88,0,0,1-2.09,1.64A1.89,1.89,0,0,1,47.82,77a1.9,1.9,0,0,1,1.87-1.66l.22,0a1.86,1.86,0,0,1,1.64,2.09Zm9.28-13.7A3.17,3.17,0,1,1,64,67,3.17,3.17,0,0,1,60.83,63.79ZM87.17,74c-.38.85-1.75,1.11-3,.56L67.37,67a4.67,4.67,0,0,0,1.3-3.2l16.92,7.55A3.08,3.08,0,0,1,87,72.63,1.44,1.44,0,0,1,87.17,74Z"/></g></svg>