<?xml version="1.0" encoding="utf-8"?>
<svg version="1.1" xmlns="http://www.w3.org/2000/svg" xmlns:xlink="http://www.w3.org/1999/xlink" viewBox="0 0 19.9 18.8" xml:space="preserve">
<path d="M14.9,10.7c-0.4,0-0.8,0.1-1.1,0.2l-2.3-3.6c0.7-0.6,1.2-1.5,1.2-2.5c0-1.7-1.4-3.1-3.1-3.1c-1.7,0-3.1,1.4-3.1,3.1
	c0,1,0.5,1.9,1.2,2.5l-1.7,3.6c-0.3-0.1-0.6-0.2-1-0.2c-1.7,0-3.1,1.4-3.1,3.1S3.2,17,5,17c1.7,0,3.1-1.4,3.1-3.1
	c0-1.2-0.7-2.2-1.6-2.7l1.7-3.5C8.6,7.9,9.1,8,9.6,8c0.5,0,1-0.1,1.4-0.4l2.3,3.6c-0.9,0.6-1.5,1.5-1.5,2.6c0,1.7,1.4,3.1,3.1,3.1
	c1.7,0,3.1-1.4,3.1-3.1S16.7,10.7,14.9,10.7z M6.1,11.6l-1.9,4.7c-0.2,0-0.3-0.1-0.4-0.2l1.9-4.7C5.8,11.5,6,11.6,6.1,11.6z
	 M3.5,11.8l-1,2.6c0-0.2-0.1-0.3-0.1-0.5C2.4,13,2.9,12.3,3.5,11.8z M2.6,14.9l1.3-3.3c0.2-0.1,0.4-0.1,0.6-0.2l-1.6,4
	C2.8,15.2,2.7,15.1,2.6,14.9z M3.2,15.7l1.7-4.3c0,0,0.1,0,0.1,0c0.1,0,0.3,0,0.4,0L3.5,16C3.4,15.9,3.3,15.8,3.2,15.7z M6.4,16
	l1.1-2.7c0,0.2,0.1,0.4,0.1,0.6C7.5,14.8,7.1,15.6,6.4,16z M7.3,12.9L6,16.2c-0.2,0.1-0.4,0.1-0.6,0.2l1.6-4
	C7.1,12.5,7.2,12.7,7.3,12.9z M6.8,12.1L5,16.4c0,0,0,0-0.1,0c-0.1,0-0.3,0-0.4,0l1.8-4.6C6.5,11.9,6.6,12,6.8,12.1z M11.9,3.8
	l-1.3,3.4c-0.2,0.1-0.4,0.1-0.6,0.2l1.6-4C11.7,3.5,11.8,3.6,11.9,3.8z M9.6,7.4c-0.1,0-0.3,0-0.4,0L11,2.7c0.1,0.1,0.3,0.2,0.4,0.3
	L9.6,7.4C9.6,7.4,9.6,7.4,9.6,7.4z M8.8,7.3c-0.2,0-0.3-0.1-0.4-0.2l1.9-4.7c0.2,0,0.3,0.1,0.4,0.2L8.8,7.3z M9.1,2.4l-1.6,4
	C7.4,6.2,7.3,6,7.2,5.8l1.3-3.3C8.7,2.5,8.9,2.4,9.1,2.4z M8.1,2.8l-1,2.6C7,5.2,7,5,7,4.9C7,4,7.4,3.3,8.1,2.8z M7.7,6.6l1.7-4.3
	c0,0,0.1,0,0.1,0c0.1,0,0.3,0,0.4,0L8.1,7C8,6.9,7.9,6.7,7.7,6.6z M11,7L12,4.3c0,0.2,0.1,0.4,0.1,0.6C12.1,5.8,11.6,6.5,11,7z
	 M14.9,16.4c-1.4,0-2.5-1.1-2.5-2.5s1.1-2.5,2.5-2.5s2.5,1.1,2.5,2.5S16.3,16.4,14.9,16.4z"/>
</svg>
