<svg xmlns="http://www.w3.org/2000/svg" viewBox="0 0 100 100"><defs><style>.cls-1{fill:#3c3c3b}</style></defs><g id="wallet"><path class="cls-1" d="M85 39.72h-3V29c0-4.56-2.28-10-13-10H19.88v62H69c11.69 0 13-7.72 13-11v-9.72h3zM79 70a10.92 10.92 0 0 1-.16 1.86h-5.56v1h5.27C77.46 76.26 74.22 78 69 78H22.88V28.14h7.28v-1h-7.28V22H69c7.15 0 9.25 2.48 9.79 5.18h-7.11v1h7.25V39.72H61.42c-4.45 0-8.21 4.65-8.21 10.16v.37c0 5.44 3.76 10 8.21 10H79zm3-12.72H61.42c-2.77 0-5.21-3.28-5.21-7v-.37c0-3.75 2.48-7.16 5.21-7.16H82z"/><path class="cls-1" d="M34.96 27.14h7.98v1h-7.98zM47.73 27.14h7.99v1h-7.99zM58.91 27.14h7.98v1h-7.98zM23.78 71.86h7.98v1h-7.98zM36.55 71.86h7.98v1h-7.98zM49.33 71.86h7.98v1h-7.98zM60.51 71.86h7.99v1h-7.99zM59.28 49.62a3.52 3.52 0 1 0 3.52-3.51 3.53 3.53 0 0 0-3.52 3.51zm3.52-2a2 2 0 1 1-2 2 2 2 0 0 1 2-2.01z"/></g></svg>