<svg xmlns="http://www.w3.org/2000/svg" viewBox="0 0 128 128"><g><path  d="M90.6,33.41H37.65a3.92,3.92,0,0,0-3.92,3.91V76.44a5.74,5.74,0,0,0,5.73,5.73H63.25v6.25H53.54a4,4,0,0,0-4,4,4.26,4.26,0,0,0,.08.8l.12.6H78.28l.12-.6a4.26,4.26,0,0,0,.08-.8,4,4,0,0,0-4-4H64.75V82.17H90.6a3.67,3.67,0,0,0,3.67-3.66V37.07A3.67,3.67,0,0,0,90.6,33.41ZM77,92.34H51a2.52,2.52,0,0,1,2.52-2.42H74.46A2.52,2.52,0,0,1,77,92.34ZM37.65,36.41h53a.66.66,0,0,1,.67.66v5.59H36.73V37.32A.92.92,0,0,1,37.65,36.41Zm53,42.76H39.46a2.73,2.73,0,0,1-2.73-2.73V44.16H91.27V78.51A.67.67,0,0,1,90.6,79.17Z"/><path  d="M82.31,49.36A3.61,3.61,0,0,0,78.7,53a3.55,3.55,0,0,0,.74,2.16L69.66,65.52a3.51,3.51,0,0,0-1.74-.47,3.57,3.57,0,0,0-2.39.92l-7.4-5a3.56,3.56,0,0,0,.33-1.48,3.61,3.61,0,0,0-7.22,0,3.56,3.56,0,0,0,.4,1.62l-.07-.06L47,66.62a3.53,3.53,0,0,0-1.35-.26A3.61,3.61,0,1,0,49.3,70a3.56,3.56,0,0,0-1-2.5l4.25-5.21a3.53,3.53,0,0,0,4.7-.07l7.4,5a3.49,3.49,0,0,0-.33,1.48A3.61,3.61,0,1,0,70.8,66.5l9.77-10.39a3.54,3.54,0,0,0,1.74.47,3.61,3.61,0,0,0,0-7.22ZM45.69,72.08A2.11,2.11,0,1,1,47.8,70,2.12,2.12,0,0,1,45.69,72.08Zm9.16-10.46A2.11,2.11,0,1,1,57,59.51,2.11,2.11,0,0,1,54.85,61.62Zm13.07,9.15A2.11,2.11,0,1,1,70,68.66,2.12,2.12,0,0,1,67.92,70.77ZM82.31,55.08A2.11,2.11,0,1,1,84.42,53,2.11,2.11,0,0,1,82.31,55.08Z"/></g></svg>