<svg xmlns="http://www.w3.org/2000/svg" viewBox="0 0 128 128"><g><path  d="M94.89,39.63l-6.52-6.52a7.81,7.81,0,0,0-11,.35L35.72,75.09l-4.6,17.2a3.8,3.8,0,0,0,1,3.61A3.76,3.76,0,0,0,34.77,97a3.83,3.83,0,0,0,.94-.11l17.2-4.6L94.54,50.64A7.81,7.81,0,0,0,94.89,39.63ZM70,45,83,58l-2.28,2.28L67.74,47.32ZM38,78.21,49.79,90,38.63,93,35,89.23ZM35,94a.8.8,0,0,1-.77-.19A.79.79,0,0,1,34,93l.41-1.54,2,2.09Zm16.79-4.8-13-13L66.32,48.73l13,13ZM92.42,48.52l-8,8L71.43,43.63l8-8.05a4.81,4.81,0,0,1,6.77-.35l6.52,6.52A4.81,4.81,0,0,1,92.42,48.52Z"/></g></svg>