<svg xmlns="http://www.w3.org/2000/svg" viewBox="0 0 128 128"><g><path  d="M71.41,35.3a4,4,0,0,0-4.22.35L45.57,51.4H35.44a6.45,6.45,0,0,0-6.18,6.68V69.92a6.45,6.45,0,0,0,6.18,6.68H45.57L67.19,92.35a4,4,0,0,0,2.38.8,4.06,4.06,0,0,0,1.84-.45,4.55,4.55,0,0,0,2.43-4.12V39.42A4.55,4.55,0,0,0,71.41,35.3ZM31.86,69.92V58.08A3.86,3.86,0,0,1,35.44,54h9.8V74h-9.8A3.86,3.86,0,0,1,31.86,69.92ZM71.24,88.58a2,2,0,0,1-1,1.8,1.39,1.39,0,0,1-1.51-.13l-22-16h0V53.76h0l22-16a1.39,1.39,0,0,1,1.51-.13,2,2,0,0,1,1,1.8Z"/><path  d="M84.13,41.73a.75.75,0,1,0-.63,1.36A22.88,22.88,0,0,1,96.69,63.77v.46A22.72,22.72,0,0,1,84.27,84.54a.75.75,0,0,0-.33,1,.77.77,0,0,0,.67.4.68.68,0,0,0,.34-.08A24.18,24.18,0,0,0,98.19,64.23v-.46A24.36,24.36,0,0,0,84.13,41.73Z"/><path  d="M85.48,64.13v-.26a13.55,13.55,0,0,0-6-11.25.74.74,0,0,0-1,.2.75.75,0,0,0,.2,1,12,12,0,0,1,5.33,10v.26a12.07,12.07,0,0,1-5.43,10.08A.75.75,0,0,0,79,75.58a.78.78,0,0,0,.41-.12A13.54,13.54,0,0,0,85.48,64.13Z"/><path  d="M91.85,63.93v-.36A19.38,19.38,0,0,0,80.67,46,.75.75,0,1,0,80,47.4,17.88,17.88,0,0,1,90.35,63.57v.36A17.74,17.74,0,0,1,80.64,79.8.75.75,0,0,0,81,81.22a.81.81,0,0,0,.34-.08A19.24,19.24,0,0,0,91.85,63.93Z"/></g></svg>