<svg xmlns="http://www.w3.org/2000/svg" viewBox="0 0 128 128"><g><path  d="M49.46,48H63.63a1,1,0,0,0,0-2H49.46a1,1,0,0,0,0,2Z"/><path  d="M49.46,56.8H63.63a1,1,0,1,0,0-2H49.46a1,1,0,1,0,0,2Z"/><path  d="M79.49,64.37a1.46,1.46,0,0,0-.07-.19s0,0,0-.06a.34.34,0,0,0-.08-.09,1,1,0,0,0-.14-.15l-.15-.1a1,1,0,0,0-.18-.08l-.19,0-.12,0H49.46a1,1,0,0,0-1,1V82.31s0,0,0,.07a.71.71,0,0,0,0,.2,1.46,1.46,0,0,0,.07.19s0,0,0,.06a1,1,0,0,0,.13.16l0,0a.75.75,0,0,0,.28.18s.05,0,.07,0a1,1,0,0,0,.34.07H78.54a1,1,0,0,0,1-1V64.64s0,0,0-.07A.71.71,0,0,0,79.49,64.37ZM75,65.64,50.46,80.54V65.64ZM53,81.31l24.51-14.9v14.9Z"/><path  d="M88.55,51.73v0h-.06L70,32.36H43.45a5.51,5.51,0,0,0-5.5,5.5v53.4a5.51,5.51,0,0,0,5.5,5.5H83.38a5.5,5.5,0,0,0,5.49-5.5V52.07ZM70.33,37.07l14,14.61H77.24c-4,0-6.91-2.53-6.91-6Zm13,56.69H43.45a2.5,2.5,0,0,1-2.5-2.5V37.86a2.5,2.5,0,0,1,2.5-2.5H68.33V45.67c0,4.64,3.75,8,8.91,8h8.63V91.26A2.5,2.5,0,0,1,83.38,93.76Z"/></g></svg>