<svg xmlns="http://www.w3.org/2000/svg" viewBox="0 0 128 128"><defs><style>.cls-1{fill:#3c3c3b;}</style></defs><title>stroke_share</title><g id="share"><path class="cls-1" d="M82.4,68.52a11.35,11.35,0,0,0-9.17,4.69l-16.41-7.6A12.34,12.34,0,0,0,57,64a12.06,12.06,0,0,0-.13-1.61l16.41-7.6a11.33,11.33,0,1,0-2.18-6.66c0,.16,0,.33,0,.49l-17,7.87a11.34,11.34,0,1,0,0,15l17,7.86c0,.16,0,.33,0,.49A11.35,11.35,0,1,0,82.4,68.52Zm0-29.14a8.75,8.75,0,1,1-8.75,8.75A8.76,8.76,0,0,1,82.4,39.38ZM71.25,50.19a11.12,11.12,0,0,0,1.17,3.32L56.5,60.88A11.38,11.38,0,0,0,55,57.7ZM45.6,72.75A8.75,8.75,0,1,1,54.35,64a9.66,9.66,0,0,1-.15,1.62A8.76,8.76,0,0,1,45.6,72.75ZM55,70.3a11.55,11.55,0,0,0,1.48-3.18l15.91,7.37a11.12,11.12,0,0,0-1.17,3.32ZM82.4,88.62a8.75,8.75,0,1,1,8.75-8.75A8.77,8.77,0,0,1,82.4,88.62Z"/></g></svg>