<svg xmlns="http://www.w3.org/2000/svg" viewBox="0 0 128 128"><defs><style>.cls-1{fill:#3c3c3b;}</style></defs><title>stroke_copy</title><g id="copy"><path class="cls-1" d="M79,44.73H40.69a3.91,3.91,0,0,0-3.91,3.91V86.9a3.92,3.92,0,0,0,3.91,3.91H79a3.91,3.91,0,0,0,3.9-3.91V48.64A3.91,3.91,0,0,0,79,44.73Zm1.3,42.17A1.31,1.31,0,0,1,79,88.21H40.69a1.31,1.31,0,0,1-1.31-1.31V48.64a1.31,1.31,0,0,1,1.31-1.31H79a1.31,1.31,0,0,1,1.3,1.31Z"/><path class="cls-1" d="M84.33,37.19H52a1.3,1.3,0,0,0,0,2.6H84.33a4.3,4.3,0,0,1,4.29,4.29v32.3a1.3,1.3,0,0,0,2.6,0V44.08A6.9,6.9,0,0,0,84.33,37.19Z"/><path class="cls-1" d="M47,59.68H59.49a.75.75,0,0,0,0-1.5H47a.75.75,0,0,0,0,1.5Z"/><path class="cls-1" d="M72.68,67H47a.75.75,0,0,0,0,1.5H72.68a.75.75,0,0,0,0-1.5Z"/><path class="cls-1" d="M72.68,75.86H47a.75.75,0,0,0,0,1.5H72.68a.75.75,0,0,0,0-1.5Z"/></g></svg>