<svg xmlns="http://www.w3.org/2000/svg" viewBox="0 0 128 128"><g><path  d="M86.31,46.2A23,23,0,0,0,73.85,32,24.35,24.35,0,0,0,64,29.84,24.1,24.1,0,0,0,54.17,32,23,23,0,0,0,41.69,46.22a20.59,20.59,0,0,0,2.4,17.23l.45.71c1.24,1.94,2.52,3.94,3.73,5.94a21.3,21.3,0,0,1,3.32,10c.1,1.77.1,3.59.08,5.45a8.43,8.43,0,0,0,2.65,6.31L56,93.58c.71.71,1.41,1.42,2.13,2.11A8.41,8.41,0,0,0,64,98.16h0a8.74,8.74,0,0,0,5.82-2.47c.7-.67,1.37-1.36,2-2s1.15-1.19,1.74-1.77a8.43,8.43,0,0,0,2.65-6.31c0-1.85,0-3.65.08-5.45a21.35,21.35,0,0,1,3.33-10c1.07-1.77,2.21-3.55,3.31-5.27l.88-1.38A20.61,20.61,0,0,0,86.31,46.2ZM54.67,85.59c0-1.37,0-2.7,0-4h18.7c0,1.34,0,2.67,0,4,0,.21,0,.4,0,.59H54.69C54.68,86,54.67,85.79,54.67,85.59Zm16.88,4.14c-.61.6-1.2,1.21-1.8,1.82s-1.29,1.33-2,2A5.8,5.8,0,0,1,64,95.16h0a5.42,5.42,0,0,1-3.79-1.62c-.7-.68-1.39-1.37-2.08-2.07S57,90.3,56.42,89.73a6.25,6.25,0,0,1-1.17-1.56H72.71A6,6,0,0,1,71.55,89.73Zm9.83-27.89-.88,1.37c-1.12,1.74-2.26,3.53-3.36,5.33a24.43,24.43,0,0,0-3.72,11H65v-13c.78-.74,6.59-6.26,9.46-9A1,1,0,1,0,73,56.1c-2.56,2.48-7.48,7.15-9,8.64l-8.35-8.55a1,1,0,0,0-1.42,0,1,1,0,0,0,0,1.41l8.75,9v13h-8.4a24.36,24.36,0,0,0-3.72-11c-1.22-2-2.51-4-3.76-6l-.45-.7a17.68,17.68,0,0,1-2.06-14.76A20,20,0,0,1,55.39,34.73,21.13,21.13,0,0,1,64,32.84a21.35,21.35,0,0,1,8.6,1.89A20,20,0,0,1,83.44,47.06,17.69,17.69,0,0,1,81.38,61.84Z"/></g></svg>