<svg xmlns="http://www.w3.org/2000/svg" viewBox="0 0 128 128"><defs><style>.cls-1{fill:#3c3c3b;}</style></defs><title>stroke_document</title><g id="document"><path class="cls-1" d="M49.46,48H63.63a1,1,0,0,0,0-2H49.46a1,1,0,0,0,0,2Z"/><path class="cls-1" d="M49.46,56.8H63.63a1,1,0,1,0,0-2H49.46a1,1,0,1,0,0,2Z"/><path class="cls-1" d="M78.54,63.64H49.46a1,1,0,1,0,0,2H78.54a1,1,0,0,0,0-2Z"/><path class="cls-1" d="M78.54,72.47H49.46a1,1,0,0,0,0,2H78.54a1,1,0,0,0,0-2Z"/><path class="cls-1" d="M78.54,81.31H49.46a1,1,0,0,0,0,2H78.54a1,1,0,1,0,0-2Z"/><path class="cls-1" d="M88.55,51.73v0h-.06L70,32.36H43.45a5.51,5.51,0,0,0-5.5,5.5v53.4a5.51,5.51,0,0,0,5.5,5.5H83.38a5.5,5.5,0,0,0,5.49-5.5V52.07ZM70.33,37.07l14,14.61H77.24c-4,0-6.91-2.53-6.91-6Zm13,56.69H43.45a2.5,2.5,0,0,1-2.5-2.5V37.86a2.5,2.5,0,0,1,2.5-2.5H68.33V45.67c0,4.64,3.75,8,8.91,8h8.63V91.26A2.5,2.5,0,0,1,83.38,93.76Z"/></g></svg>