<svg xmlns="http://www.w3.org/2000/svg" viewBox="0 0 100 100"><defs><style>.cls-1{fill:#3c3c3b}</style></defs><g id="trash"><path class="cls-1" d="M28.61 73.62a9.68 9.68 0 0 0 9.45 9.88h29.15a9.68 9.68 0 0 0 9.44-9.88V30.2h-48zm3-40.42h42v40.42a6.68 6.68 0 0 1-6.44 6.88H38.06a6.68 6.68 0 0 1-6.45-6.88z"/><path class="cls-1" d="M41.53 74.54a1 1 0 0 0 1-1V39.2a1 1 0 0 0-2 0v34.34a1 1 0 0 0 1 1zM52.3 74.54a1 1 0 0 0 1-1V39.2a1 1 0 0 0-2 0v34.34a1 1 0 0 0 1 1zM63.08 74.54a1 1 0 0 0 1-1V39.2a1 1 0 0 0-2 0v34.34a1 1 0 0 0 1 1zM78.25 24.25h-14a.92.92 0 0 0-.12-.53l-4-6.73a1 1 0 0 0-.86-.49H45.55a1 1 0 0 0-.86.49l-4 6.73a.92.92 0 0 0-.12.53h-14a1.5 1.5 0 0 0 0 3h51.68a1.5 1.5 0 0 0 0-3zM46.12 18.5h12.59l3.4 5.75H42.73z"/></g></svg>