<svg xmlns="http://www.w3.org/2000/svg" viewBox="0 0 128 128"><g><path  d="M93,58.5a13,13,0,0,0-3.82.57,14.06,14.06,0,0,0-13.87-13.3,13.66,13.66,0,0,0-9.12,3.49,17,17,0,0,0-14.78-8.67,17.25,17.25,0,0,0-17,15.4A14.84,14.84,0,0,0,22.75,70.6c0,13.89,11.56,16.81,13.84,16.81h56.2c5.21,0,12.46-7.37,12.46-14.62C105.25,65.76,100.65,58.5,93,58.5Zm-.16,25.91H36.63c-.11,0-10.88-1.26-10.88-13.81a11.89,11.89,0,0,1,8-11.32,10.43,10.43,0,0,1,5.34-.39,5.68,5.68,0,0,1,4.34,3.7,1,1,0,0,0,.72.7,1,1,0,0,0,1-.28,4.64,4.64,0,0,1,8,3.11,1,1,0,0,0,1,1h0a1,1,0,0,0,1-1,6.62,6.62,0,0,0-10.3-5.37,8,8,0,0,0-5.26-3.76,10.21,10.21,0,0,0-2.16-.24,14.24,14.24,0,0,1,14-13.11,14.09,14.09,0,0,1,13,8.82l1,2.32,1.58-1.94a10.78,10.78,0,0,1,8.36-4A11.08,11.08,0,0,1,86.16,60c0,.38,0,.78-.06,1.18l-.1,1a9.46,9.46,0,0,0-3.24,7c-.17,1.09,1,1.37,1.31.61a8.49,8.49,0,0,1,2.5-6.26l1.72-.91A9.9,9.9,0,0,1,93,61.5c5.82,0,9.3,5.74,9.3,11.29C102.25,78.79,95.74,84.41,92.79,84.41Z"/></g></svg>