<svg xmlns="http://www.w3.org/2000/svg" viewBox="0 0 128 128"><defs><style>.cls-1{fill:#3c3c3b;}</style></defs><title>stroke_folder</title><g id="folder"><path class="cls-1" d="M84.53,46.38H67.08a3.76,3.76,0,0,1-3.44-2.25L61.36,39.3a6,6,0,0,0-5.57-3.8H43.47C37.1,35.5,31.91,41,31.91,47.68V80.32C31.91,87,37.1,92.5,43.47,92.5H84.53c6.37,0,11.56-5.46,11.56-12.18V58.56C96.09,51.84,90.9,46.38,84.53,46.38ZM43.47,38.1H55.79A3.45,3.45,0,0,1,59,40.35l2.34,4.95A6.33,6.33,0,0,0,67.08,49H84.53a9.22,9.22,0,0,1,8.9,8.5H34.51v-9.8C34.51,42.4,38.53,38.1,43.47,38.1ZM84.53,89.9H43.47c-4.94,0-9-4.3-9-9.58V59h59V80.32C93.49,85.6,89.47,89.9,84.53,89.9Z"/></g></svg>