<svg xmlns="http://www.w3.org/2000/svg" viewBox="0 0 128 128"><g><path  d="M90.12,35.33H73.21A4.62,4.62,0,0,0,68.79,32H58.69a4.62,4.62,0,0,0-4.42,3.35H38.14a4.42,4.42,0,0,0-4.41,4.4V79.46a4.65,4.65,0,0,0,4.64,4.64h24v6h-9.5a4.28,4.28,0,0,0-4.27,4.27,4.12,4.12,0,0,0,.09.86,1,1,0,0,0,1,.8H77a1,1,0,0,0,1-.8,4.91,4.91,0,0,0,.08-.86,4.27,4.27,0,0,0-4.27-4.27H64.35v-6h23.7a6.23,6.23,0,0,0,6.22-6.22V39.48A4.16,4.16,0,0,0,90.12,35.33ZM76,94H50.61a2.28,2.28,0,0,1,2.24-1.93H73.77A2.28,2.28,0,0,1,76,94ZM56.07,36.61A2.62,2.62,0,0,1,58.69,34h10.1a2.62,2.62,0,0,1,2.62,2.63v.29a2.62,2.62,0,0,1-2.62,2.63H58.69a2.62,2.62,0,0,1-2.62-2.63ZM38.14,38.33H54.31a4.62,4.62,0,0,0,4.38,3.2h10.1a4.62,4.62,0,0,0,4.38-3.2h17a1.16,1.16,0,0,1,1.15,1.15v6.75H36.73v-6.5A1.41,1.41,0,0,1,38.14,38.33ZM88.05,81.1H38.37a1.65,1.65,0,0,1-1.64-1.64V47.73H91.27V77.88A3.23,3.23,0,0,1,88.05,81.1Z"/><path  d="M74.37,52.44A10.25,10.25,0,1,0,84.61,62.68,10.26,10.26,0,0,0,74.37,52.44Zm0,1.5a7,7,0,0,1,.79,0l-.89,8.49-8.1-2.8A8.75,8.75,0,0,1,74.37,53.94Zm0,17.49a8.7,8.7,0,0,1-8.49-10.81l8.66,3a.5.5,0,0,0,.17,0,.48.48,0,0,0,.26-.07.5.5,0,0,0,.23-.37l1-9.08a8.75,8.75,0,0,1-1.78,17.31Z"/><path  d="M59.42,56.35h-17a.75.75,0,0,0,0,1.5h17a.75.75,0,0,0,0-1.5Z"/><path  d="M59.42,62.89h-17a.75.75,0,0,0,0,1.5h17a.75.75,0,0,0,0-1.5Z"/><path  d="M59.42,69.42h-17a.75.75,0,0,0,0,1.5h17a.75.75,0,0,0,0-1.5Z"/></g></svg>