<svg xmlns="http://www.w3.org/2000/svg" viewBox="0 0 128 128"><defs><style>.cls-1{fill:#3c3c3b;}</style></defs><title>stroke_search</title><g id="search"><path class="cls-1" d="M95.92,88.8,79.8,72.67a26.73,26.73,0,0,0,4.91-15.46A27.06,27.06,0,1,0,72.13,80l16.3,16.31a5,5,0,0,0,7.1,0l.39-.38a5,5,0,0,0,0-7.1ZM33.61,57.21a24.05,24.05,0,1,1,24,24A24,24,0,0,1,33.61,57.21ZM93.8,93.77l-.39.39a2,2,0,0,1-2.86,0l-16-16A26.12,26.12,0,0,0,77.92,75L93.8,90.92A2,2,0,0,1,93.8,93.77Z"/><path class="cls-1" d="M57.66,36.53A20.68,20.68,0,1,0,78.41,57.21,20.74,20.74,0,0,0,57.66,36.53Zm0,39.36A18.68,18.68,0,1,1,76.41,57.21,18.74,18.74,0,0,1,57.66,75.89Z"/></g></svg>