<?xml version="1.0" encoding="utf-8"?>
<svg version="1.1" xmlns="http://www.w3.org/2000/svg" xmlns:xlink="http://www.w3.org/1999/xlink" viewBox="0 0 100 100" xml:space="preserve">
<path d="M50,20.4c0.1,0,0.2,0,0.3,0.1l12.8,12.8l3.4,3.4v-4.8v-9.6c0-0.2,0.2-0.4,0.4-0.4l2.4,0c0.2,0,0.4,0.2,0.4,0.4v16v0.8
	l0.5,0.6l11,11.9l0,0.1l0,0c0.1,0.1,0.1,0.6-0.1,0.8c-0.2,0.2-0.6,0.5-1,0.8c-0.2,0.2-0.4,0.3-0.6,0.4c-0.1,0.1-0.2,0.1-0.2,0.1
	c-0.1,0-0.4-0.2-0.7-0.5l-0.1-0.1L51.4,25.8L50,24.4l-1.4,1.4L21,53.3l-0.4,0.4c-0.2,0.2-0.5,0.3-0.7,0.3c-0.1,0-0.4,0-0.6-0.2
	l-0.6-0.6l0,0l0,0c-0.2-0.2-0.4-0.6-0.4-0.9c0-0.3,0.3-0.7,0.6-0.9l0.1-0.1l0.1-0.1l30.6-30.5C49.7,20.4,49.9,20.4,50,20.4 M50,18.4
	c-0.6,0-1.3,0.2-1.7,0.7L17.6,49.7c-2.2,1.8-1.3,3.8-0.4,4.7l0.6,0.7c0.6,0.6,1.3,0.9,2.1,0.9c0.8,0,1.5-0.3,2.1-0.9l0.4-0.4
	L50,27.3l27.3,27.3c0.3,0.3,1.1,1.2,2.2,1.2c0.5,0,1-0.2,1.5-0.6c0.5-0.4,1.2-0.9,1.7-1.4c0.9-0.9,1.1-2.7,0.1-3.6c0,0,0,0,0,0
	l-11-11.9v-16c0-1.3-1.1-2.4-2.4-2.4l-2.4,0c-1.3,0-2.4,1.1-2.4,2.4v9.6L51.7,19.1C51.2,18.6,50.6,18.4,50,18.4L50,18.4z"/>
<path d="M50,36l23.7,23.7v12.1c0,2.4-1.9,4.3-4.3,4.3H30.5c-2.4,0-4.3-1.9-4.3-4.3V59.7L50,36 M50,31.7L23.2,58.5v13.4
	c0,4,3.3,7.3,7.3,7.3c0,0,0,0,0,0h38.9c0,0,0,0,0,0c4,0,7.3-3.3,7.3-7.3c0,0,0,0,0,0V58.5L50,31.7L50,31.7z"/>
<path d="M55.2,53.7c0.4,0,0.8,0.3,0.8,0.8V71c0,0.4-0.3,0.8-0.8,0.8H44.2c-0.4,0-0.8-0.3-0.8-0.8V54.5c0-0.4,0.3-0.8,0.8-0.8l0.8,0
	H55.2 M55.2,51.7H44.2v0c-1.5,0-2.8,1.2-2.8,2.8V71c0,1.5,1.2,2.8,2.8,2.8h11.1c1.5,0,2.8-1.2,2.8-2.8V54.5
	C58,52.9,56.8,51.7,55.2,51.7L55.2,51.7z"/>
</svg>
