<?xml version="1.0" encoding="utf-8"?>
<svg version="1.1" xmlns="http://www.w3.org/2000/svg" xmlns:xlink="http://www.w3.org/1999/xlink" viewBox="0 0 100 100" xml:space="preserve">
<path d="M50,46.4h14.2c0.6,0,1-0.4,1-1s-0.4-1-1-1H50c-0.6,0-1,0.4-1,1S49.4,46.4,50,46.4z"/>
<path d="M64.1,53.4H35c-0.6,0-1,0.4-1,1s0.4,1,1,1h29.1c0.6,0,1-0.4,1-1S64.7,53.4,64.1,53.4z"/>
<path d="M64.1,62.2H35c-0.6,0-1,0.4-1,1s0.4,1,1,1h29.1c0.6,0,1-0.4,1-1S64.7,62.2,64.1,62.2z"/>
<path d="M75.1,37.2L75.1,37.2L56.5,17.8H30c-3,0-5.5,2.5-5.5,5.5v53.4c0,3,2.5,5.5,5.5,5.5h40c3,0,5.5-2.5,5.5-5.5V37.5L75.1,37.2z
	 M56.9,22.5l14,14.6h-7.1c-4,0-6.9-2.5-6.9-6L56.9,22.5z M70,79.2H30c-1.4,0-2.5-1.1-2.5-2.5V23.3c0-1.4,1.1-2.5,2.5-2.5h24.9v10.3
	c0,4.6,3.8,8,8.9,8h8.6v37.6C72.5,78.1,71.4,79.2,70,79.2z"/>
<path d="M44.1,46.5h-1.3c-0.1,0-0.2-0.1-0.3-0.2l-1.3-3.2l-0.9-2.6c-0.1-0.2-0.4-0.2-0.5,0l-0.9,2.6l-1.2,3.2c0,0.1-0.1,0.2-0.3,0.2
	h-1.4c-0.1,0-0.2-0.1-0.3-0.2l-3.9-10.2c-0.1-0.2,0.1-0.4,0.3-0.4H34c0.1,0,0.2,0.1,0.3,0.2l2.2,6.8c0.1,0.2,0.4,0.3,0.5,0l2.3-6.8
	c0-0.1,0.1-0.2,0.3-0.2h0.9c0.1,0,0.2,0.1,0.3,0.2l2.3,6.8c0.1,0.2,0.4,0.2,0.5,0l2.4-6.8c0-0.1,0.1-0.2,0.3-0.2h1.9
	c0.2,0,0.3,0.2,0.3,0.4l-3.9,10.2C44.3,46.4,44.2,46.5,44.1,46.5z"/>
<path d="M64.1,71H35c-0.6,0-1,0.4-1,1s0.4,1,1,1h29.1c0.6,0,1-0.4,1-1S64.7,71,64.1,71z"/>
</svg>
