<svg xmlns="http://www.w3.org/2000/svg" viewBox="0 0 128 128"><g><path  d="M81.13,65.26H46.87a.74.74,0,0,0-.75.75V87.25a.75.75,0,0,0,.75.75H81.13a.75.75,0,0,0,.75-.75V66A.74.74,0,0,0,81.13,65.26Zm-33.51,1.5H80.38v19.5l-7-10.92a.76.76,0,0,0-.57-.35.74.74,0,0,0-.62.25l-4,4.39L64.1,73.42a.74.74,0,0,0-.59-.33.69.69,0,0,0-.61.27l-10.58,13a.8.8,0,0,0-.08.16H47.62ZM78.75,86.5H54.13l9.29-11.41,4.13,6.17a.74.74,0,0,0,.57.33.72.72,0,0,0,.61-.24L72.67,77Z"/><path  d="M54.37,76.58a4,4,0,1,0-4-4A4,4,0,0,0,54.37,76.58Zm0-6.43a2.47,2.47,0,1,1-2.46,2.47A2.47,2.47,0,0,1,54.37,70.15Z"/><path  d="M88.55,51.73v0h-.06L70,32.36H43.45a5.51,5.51,0,0,0-5.5,5.5v53.4a5.51,5.51,0,0,0,5.5,5.5H83.38a5.5,5.5,0,0,0,5.49-5.5V52.07ZM70.33,37.07l14,14.61H77.24c-4,0-6.91-2.53-6.91-6Zm13,56.69H43.45a2.5,2.5,0,0,1-2.5-2.5V37.86a2.5,2.5,0,0,1,2.5-2.5H68.33V45.67c0,4.64,3.75,8,8.91,8h8.63V91.26A2.5,2.5,0,0,1,83.38,93.76Z"/></g></svg>