<svg xmlns="http://www.w3.org/2000/svg" viewBox="0 0 128 128"><defs><style>.cls-1{fill:#3c3c3b;}</style></defs><title>stroke_user</title><g id="user"><path class="cls-1" d="M88.68,80.66l-.14-.13a22.73,22.73,0,0,0-4.81-3.76c-3-1.61-6.26-3-9.36-4.32L73.31,72c-1-.45-1.17-.81-1.21-1.15a4.15,4.15,0,0,1,.26-2.22C77.47,64.05,81,55.56,81,47.85,81,37.64,74.5,31.3,64,31.3S47,37.64,47,47.85c0,7.71,3.56,16.21,8.67,20.78a2.28,2.28,0,0,1,.24,1.81A3.06,3.06,0,0,1,54,72.09l-.42.16c-1.4.54-2.84,1.1-4.23,1.75a34.59,34.59,0,0,0-10.11,6.7A8.89,8.89,0,0,0,37,87.83a6.25,6.25,0,0,0,2.75,4.74,22.65,22.65,0,0,0,5.77,2.64c6,1.68,12.28,1.79,20.16,1.94h.13L68,97c2.4-.14,5.39-.31,8.44-.63a31.64,31.64,0,0,0,9.88-2.53A7.73,7.73,0,0,0,90.94,88,8.33,8.33,0,0,0,88.68,80.66ZM58.11,66.89l-.12-.2-.18-.15C53.28,62.6,50,54.74,50,47.85,50,35.62,59.79,34.3,64,34.3s14,1.32,14,13.55c0,6.91-3.31,14.78-7.86,18.71l-.21.19-.1.17A9.89,9.89,0,0,1,64,69.21,9.94,9.94,0,0,1,58.11,66.89ZM88,87.47a4.7,4.7,0,0,1-2.88,3.64,28.52,28.52,0,0,1-8.95,2.29c-3,.31-5.93.48-8.3.62l-2.17.13C58,94,52,93.89,46.33,92.32a20,20,0,0,1-5-2.31A3.42,3.42,0,0,1,40,87.47a6,6,0,0,1,1.36-4.66,30.81,30.81,0,0,1,9.25-6.09c1.3-.61,2.69-1.15,4-1.67l.42-.16a6,6,0,0,0,3.67-3.48A4.47,4.47,0,0,0,59,69.83a9.84,9.84,0,0,0,10.1,0,8.07,8.07,0,0,0,0,1.38,4.49,4.49,0,0,0,3,3.57l1.07.46c3,1.31,6.2,2.66,9.14,4.21a20.52,20.52,0,0,1,4.16,3.3l.14.13A5.41,5.41,0,0,1,88,87.47Z"/></g></svg>