<svg xmlns="http://www.w3.org/2000/svg" viewBox="0 0 128 128"><g><path  d="M64,92.28a3,3,0,1,1,3-3A2.95,2.95,0,0,1,64,92.28Zm0-4.4a1.45,1.45,0,1,0,1.45,1.45A1.45,1.45,0,0,0,64,87.88Z"/><path  d="M76.93,84.05H51.07V39.34H76.93Zm-23.86-2H74.93V41.34H53.07Z"/><path  d="M78.9,99.67H49.1a5.83,5.83,0,0,1-5.82-5.83V34.16a5.83,5.83,0,0,1,5.82-5.83H78.9a5.83,5.83,0,0,1,5.82,5.83V93.84A5.83,5.83,0,0,1,78.9,99.67ZM49.1,31.33a2.83,2.83,0,0,0-2.82,2.83V93.84a2.83,2.83,0,0,0,2.82,2.83H78.9a2.83,2.83,0,0,0,2.82-2.83V34.16a2.83,2.83,0,0,0-2.82-2.83Z"/></g></svg>