<svg xmlns="http://www.w3.org/2000/svg" viewBox="0 0 128 128"><defs><style>.cls-1{fill:#3c3c3b;}</style></defs><title>stroke_calendar</title><g id="calendar"><path class="cls-1" d="M87.49,36.34H79.61V33.45a1.5,1.5,0,0,0-3,0v2.89H51.39V33.45a1.5,1.5,0,1,0-3,0v2.89H40.51a5.59,5.59,0,0,0-5.58,5.58V90.46a5.59,5.59,0,0,0,5.58,5.59h47a5.59,5.59,0,0,0,5.58-5.59V41.92A5.59,5.59,0,0,0,87.49,36.34Zm-47,3h7.88v4.55a1.5,1.5,0,0,0,3,0V39.34H76.61v4.55a1.5,1.5,0,0,0,3,0V39.34h7.88a2.59,2.59,0,0,1,2.58,2.58V53.49H37.93V41.92A2.59,2.59,0,0,1,40.51,39.34Zm47,53.71h-47a2.59,2.59,0,0,1-2.58-2.59v-35H90.07v35A2.59,2.59,0,0,1,87.49,93.05Z"/><path class="cls-1" d="M59.42,74.17a9.31,9.31,0,0,0,2-2.5,5.28,5.28,0,0,0,.53-2.31,3.78,3.78,0,0,0-1.43-3.12,5.86,5.86,0,0,0-3.82-1.15,8.44,8.44,0,0,0-3.25.61,6,6,0,0,0-2.35,1.71l1.49,1.29A4.79,4.79,0,0,1,56.49,67a3.85,3.85,0,0,1,2.42.66,2.26,2.26,0,0,1,.84,1.87,3.63,3.63,0,0,1-.39,1.61,7.86,7.86,0,0,1-1.53,1.89l-6.24,6v1.48h11v-1.9H54.74Z"/><path class="cls-1" d="M75.37,72.6a7.71,7.71,0,0,0-4.82-1.23H68.84l.42-4.2h6.8v-1.9H67.42l-.81,8h3.48a6.7,6.7,0,0,1,3.58.71,2.59,2.59,0,0,1,.1,4.09,4.29,4.29,0,0,1-2.68.73,7.45,7.45,0,0,1-2.58-.45,5.83,5.83,0,0,1-2-1.19l-1,1.73A6.75,6.75,0,0,0,68,80.25a10,10,0,0,0,3.13.5,7.33,7.33,0,0,0,3.2-.63,4.33,4.33,0,0,0,1.94-1.7A4.69,4.69,0,0,0,76.91,76,4.1,4.1,0,0,0,75.37,72.6Z"/></g></svg>