<svg xmlns="http://www.w3.org/2000/svg" viewBox="0 0 128 128"><defs><style>.cls-1{fill:#3c3c3b;}</style></defs><title>stroke_basket</title><g id="basket"><path class="cls-1" d="M95,56.43H88.09V41a8.77,8.77,0,0,0-8.32-8.75A3.46,3.46,0,0,0,76.33,29H51.67a3.46,3.46,0,0,0-3.44,3.23A8.77,8.77,0,0,0,39.91,41V56.43H33c-3.45,0-6.26,3.3-6.26,7.35v1.85a7.6,7.6,0,0,0,3.34,6.48l3.66,20,.07.31c.85,3.4,1.65,6.61,4.46,6.61H89.91c2.32,0,3.85-2.37,4.56-7L97.91,72.1a7.62,7.62,0,0,0,3.33-6.47V63.78C101.24,59.73,98.43,56.43,95,56.43Zm-43.78-24a.48.48,0,0,1,.47-.47H76.33a.48.48,0,0,1,.47.47v.3a.93.93,0,0,0-.11.44.89.89,0,0,0,.11.43v1.45a.48.48,0,0,1-.47.47H51.67a.48.48,0,0,1-.47-.47ZM41.91,41a6.78,6.78,0,0,1,6.29-6.75v.86a3.48,3.48,0,0,0,3.47,3.47H76.33a3.48,3.48,0,0,0,3.47-3.47v-.86A6.78,6.78,0,0,1,86.09,41V56.43H41.91Zm49.6,50.55C91,95,90.11,96,89.91,96H38.3c-.54-.28-1.18-2.83-1.55-4.35L32.81,70.21H95.19Zm6.73-25.88a4.67,4.67,0,0,1-1.69,3.76v-.18H31.45v.18a4.67,4.67,0,0,1-1.69-3.76V63.78c0-2.36,1.49-4.35,3.26-4.35H95c1.77,0,3.26,2,3.26,4.35Z"/><path class="cls-1" d="M47.91,73.82H47.1a2.8,2.8,0,0,0-2.8,2.79V88.48a2.81,2.81,0,0,0,2.8,2.8h.81a2.8,2.8,0,0,0,2.79-2.8V76.61A2.79,2.79,0,0,0,47.91,73.82Zm.79,14.66a.79.79,0,0,1-.79.8H47.1a.8.8,0,0,1-.8-.8V76.61a.79.79,0,0,1,.8-.79h.81a.79.79,0,0,1,.79.79Z"/><path class="cls-1" d="M64.41,73.82h-.82a2.79,2.79,0,0,0-2.79,2.79V88.48a2.8,2.8,0,0,0,2.79,2.8h.82a2.8,2.8,0,0,0,2.79-2.8V76.61A2.79,2.79,0,0,0,64.41,73.82Zm.79,14.66a.8.8,0,0,1-.79.8h-.82a.8.8,0,0,1-.79-.8V76.61a.79.79,0,0,1,.79-.79h.82a.79.79,0,0,1,.79.79Z"/><path class="cls-1" d="M80.9,73.82h-.81a2.79,2.79,0,0,0-2.79,2.79V88.48a2.8,2.8,0,0,0,2.79,2.8h.81a2.81,2.81,0,0,0,2.8-2.8V76.61A2.8,2.8,0,0,0,80.9,73.82Zm.8,14.66a.8.8,0,0,1-.8.8h-.81a.79.79,0,0,1-.79-.8V76.61a.79.79,0,0,1,.79-.79h.81a.79.79,0,0,1,.8.79Z"/></g></svg>