<svg xmlns="http://www.w3.org/2000/svg" viewBox="0 0 128 128"><g><path  d="M89,38H39.11c-4.19,0-8,4.11-8,8.61V81.87a8.29,8.29,0,0,0,8,8.13H89a8.11,8.11,0,0,0,7.87-8.13V46.61C96.91,42.55,93.54,38,89,38ZM39.11,41H89c2.74,0,4.87,3,4.87,5.61v1.32H34.09V46.61C34.09,43.78,36.58,41,39.11,41Zm-5,39.59V49.93H93.91V80.59ZM89,87H39.11a5.28,5.28,0,0,1-5-4.41H93.83A5.09,5.09,0,0,1,89,87Z"/><circle  cx="40.22" cy="44.54" r="1.33"/><path  d="M44.49,45.88a1.34,1.34,0,1,0-1.33-1.34A1.34,1.34,0,0,0,44.49,45.88Z"/><path  d="M48.77,45.88a1.34,1.34,0,1,0-1.34-1.34A1.34,1.34,0,0,0,48.77,45.88Z"/><path  d="M53.17,65.43l5-5a1.28,1.28,0,0,0-1.81-1.81l-5.87,5.88a1.3,1.3,0,0,0,0,1.84l5.87,5.88a1.28,1.28,0,0,0,1.81-1.81Z"/><path  d="M76.75,64.51l-5.88-5.88a1.28,1.28,0,1,0-1.8,1.81l5,5-5,5a1.28,1.28,0,0,0,1.8,1.81l5.88-5.88a1.27,1.27,0,0,0,.38-.92A1.31,1.31,0,0,0,76.75,64.51Z"/><path  d="M65,56.85A1.39,1.39,0,0,0,63.44,58L61.07,72.41a1.39,1.39,0,0,0,2.75.45l2.37-14.41A1.39,1.39,0,0,0,65,56.85Z"/></g></svg>