<svg xmlns="http://www.w3.org/2000/svg" viewBox="0 0 128 128"><g><path  d="M94.58,45.44,74.8,33.11a1.48,1.48,0,0,0-.79-.23h-.24a1.5,1.5,0,0,0-.87.28c-.52.35-7.3,4.62-12.76,8.06L54.08,45h0c-6-3.76-18.28-11.76-18.81-12.14a1.5,1.5,0,0,0-2.43.83c-.06.26-.12.54-.12,47.9a1.54,1.54,0,0,0,.77,1.32c.53.3,12.86,7.91,18.76,11.64a3.15,3.15,0,0,0,3.74,0q4.86-3.09,9.75-6.14,4.06-2.55,8.12-5.11l.08,0,.07,0q7.22,4.55,14.45,9L93,95.23a1.54,1.54,0,0,0,.8.23,1.47,1.47,0,0,0,.73-.19A1.51,1.51,0,0,0,95.29,94V46.72A1.52,1.52,0,0,0,94.58,45.44ZM35.76,36.81c4.05,2.65,12.1,7.86,16.18,10.42V90.84c-5.29-3.32-13.63-8.47-16.23-10.06C35.71,58.06,35.73,42.7,35.76,36.81Zm28.37,49.1c-3.26,2-6.52,4.09-9.76,6.15l-.23.14-.2-.11v-44a2.45,2.45,0,0,0,1.58-.43l6.22-3.92,10.62-6.7V80.74l-.11.06Q68.2,83.37,64.13,85.91Zm28.16,5.34L90,89.85q-7.23-4.51-14.44-9a3.31,3.31,0,0,0-1.24-.5V36.37L92.29,47.55Z"/></g></svg>