<svg xmlns="http://www.w3.org/2000/svg" viewBox="0 0 128 128"><g><path  d="M65,45.66a8.93,8.93,0,1,0,8.93,8.93A8.95,8.95,0,0,0,65,45.66ZM65,62a7.43,7.43,0,1,1,7.43-7.43A7.43,7.43,0,0,1,65,62Z"/><path  d="M82.72,35.76c-.45-.45-1-.91-1.58-1.43L81,34.22c-.5-.41-1-.82-1.68-1.26l-.16-.11-.32-.23c-.18-.12-.37-.23-.56-.34l-.18-.11A26.62,26.62,0,0,0,64,27.84a4.2,4.2,0,0,0-.65,0h0A27,27,0,0,0,37.21,54.77c0,15.24,24.86,43.67,25.91,44.88l1.14,1.28,1.12-1.29c1-1.2,25.41-29.42,25.41-44.73A26.59,26.59,0,0,0,82.72,35.76ZM64.24,96.34c-4.9-5.8-24-29.21-24-41.57A24,24,0,0,1,63.42,30.88V29.62l.09,1.25.48,0a23.67,23.67,0,0,1,12.55,3.89l.22.13.43.26.21.15.22.16c.56.39,1.05.75,1.5,1.12l.11.1c.53.44,1,.85,1.37,1.25a23.59,23.59,0,0,1,7.18,17C87.79,67.33,69.07,90.56,64.24,96.34Z"/></g></svg>