<svg xmlns="http://www.w3.org/2000/svg" viewBox="0 0 128 128"><g><path  d="M40.2,87.87a9.67,9.67,0,0,0,9.44,9.88H78.79a9.68,9.68,0,0,0,9.45-9.88V44.45h-48Zm3-40.42h42V87.87a6.68,6.68,0,0,1-6.45,6.88H49.64a6.68,6.68,0,0,1-6.44-6.88Z"/><path  d="M53.11,88.79a1,1,0,0,0,1-1V53.45a1,1,0,0,0-2,0V87.79A1,1,0,0,0,53.11,88.79Z"/><path  d="M63.89,88.79a1,1,0,0,0,1-1V53.45a1,1,0,0,0-2,0V87.79A1,1,0,0,0,63.89,88.79Z"/><path  d="M74.66,88.79a1,1,0,0,0,1-1V53.45a1,1,0,0,0-2,0V87.79A1,1,0,0,0,74.66,88.79Z"/><path  d="M89.83,38.5h-14A1,1,0,0,0,75.7,38l-4-6.73a1,1,0,0,0-.86-.49H57.14a1,1,0,0,0-.86.49L52.3,38a1,1,0,0,0-.12.53h-14a1.5,1.5,0,0,0,0,3H89.83a1.5,1.5,0,0,0,0-3ZM57.71,32.75H70.29l3.4,5.75H54.31Z"/></g></svg>