<svg xmlns="http://www.w3.org/2000/svg" viewBox="0 0 128 128"><g><path  d="M64,32.81A31.19,31.19,0,1,0,95.19,64,31.22,31.22,0,0,0,64,32.81Zm0,59.78A28.59,28.59,0,1,1,92.59,64,28.63,28.63,0,0,1,64,92.59Z"/><path  d="M78.08,49.87a.75.75,0,0,0-1.06,0L58.18,68.7,51,61.5a.75.75,0,0,0-1.06,0L46,65.42a.75.75,0,0,0,0,1.06L57.65,78.13a.77.77,0,0,0,.53.22.75.75,0,0,0,.53-.22L82,54.85a.75.75,0,0,0,0-1.06ZM58.18,76.54,47.59,66l2.86-2.86,7.2,7.2a.77.77,0,0,0,.53.22.75.75,0,0,0,.53-.22L77.55,51.46l2.86,2.86Z"/></g></svg>