<svg xmlns="http://www.w3.org/2000/svg" viewBox="0 0 128 128"><g><path  d="M84.7,48.42H43.3a1,1,0,0,0,0,2H84.7a1,1,0,0,0,0-2Z"/><path  d="M84.7,57.88H43.3a1,1,0,0,0,0,2H84.7a1,1,0,0,0,0-2Z"/><path  d="M67,67.34H43.3a1,1,0,0,0,0,2H67a1,1,0,1,0,0-2Z"/><path  d="M86.14,35.5H43c-6.18,0-11.21,4.62-11.21,10.3V72c0,6,5.34,11.46,11.21,11.46h.62V90.6a1.9,1.9,0,0,0,1.09,1.72,2,2,0,0,0,.81.18,1.9,1.9,0,0,0,1.21-.44l10.44-8.62h29c5.58,0,10.11-5.14,10.11-11.46V45.8C96.25,39.83,92,35.5,86.14,35.5ZM93.25,72c0,4.07-2.72,8.46-7.11,8.46H56.05l-9.47,7.82V80.44H43c-4.22,0-8.21-4.11-8.21-8.46V45.8c0-4.51,4.26-7.3,8.21-7.3H86.14c4.25,0,7.11,2.94,7.11,7.3Z"/></g></svg>