<?xml version="1.0" encoding="utf-8"?>
<svg version="1.1" xmlns="http://www.w3.org/2000/svg" xmlns:xlink="http://www.w3.org/1999/xlink" viewBox="0 0 100 100" style="enable-background:new 0 0 100 100;" xml:space="preserve">
<path d="M75.1,37.2L75.1,37.2L56.5,17.8H30c-3,0-5.5,2.5-5.5,5.5v53.4c0,3,2.5,5.5,5.5,5.5h40c3,0,5.5-2.5,5.5-5.5V37.5L75.1,37.2z
	 M56.9,22.5l14,14.6h-7.1c-4,0-6.9-2.5-6.9-6V22.5z M70,79.2H30c-1.4,0-2.5-1.1-2.5-2.5V23.3c0-1.4,1.1-2.5,2.5-2.5h24.9v10.3
	c0,4.6,3.8,8,8.9,8h8.6v37.6C72.5,78.1,71.4,79.2,70,79.2z"/>
<path d="M36.3,50.1v23h27.1v-23H36.3z M40.5,70.9h-2.1v-2.1h2.1V70.9z M40.5,66.7h-2.1v-2.1h2.1V66.7z M40.5,62.6h-2.1v-2.1h2.1
	V62.6z M40.5,58.4h-2.1v-2.1h2.1V58.4z M40.5,54.2h-2.1v-2.1h2.1V54.2z M57.2,70.9H42.6v-8.3h14.6V70.9z M57.2,60.5H42.6v-8.3h14.6
	V60.5z M61.3,70.9h-2.1v-2.1h2.1V70.9z M61.3,66.7h-2.1v-2.1h2.1V66.7z M61.3,62.6h-2.1v-2.1h2.1V62.6z M61.3,58.4h-2.1v-2.1h2.1
	V58.4z M61.3,54.2h-2.1v-2.1h2.1V54.2z"/>
</svg>
