<svg xmlns="http://www.w3.org/2000/svg" viewBox="0 0 128 128"><g><path  d="M88.42,47.15A5.16,5.16,0,0,0,93.57,42V35a5.16,5.16,0,0,0-5.15-5.15H39.58A5.16,5.16,0,0,0,34.43,35v7a5.16,5.16,0,0,0,5.15,5.15h24v2.56h-24a5.16,5.16,0,0,0-5.15,5.15v7A5.15,5.15,0,0,0,39.58,67h24v2.11h-24a5.16,5.16,0,0,0-5.15,5.15v7a5.16,5.16,0,0,0,5.15,5.15h24v4.67A3,3,0,0,0,61,93.58H46.75a.5.5,0,0,0-.5.5.5.5,0,0,0,.5.5H61a3,3,0,0,0,6,0H81.45a.5.5,0,0,0,.5-.5.5.5,0,0,0-.5-.5H67a3.07,3.07,0,0,0-2.4-2.49V86.4H88.42a5.16,5.16,0,0,0,5.15-5.15v-7a5.16,5.16,0,0,0-5.15-5.15H64.6V67H88.42a5.15,5.15,0,0,0,5.15-5.14v-7a5.16,5.16,0,0,0-5.15-5.15H64.6V47.15ZM66.05,94.08a2,2,0,1,1-2-2A2.05,2.05,0,0,1,66.05,94.08ZM90.57,74.26v7a2.15,2.15,0,0,1-2.15,2.15H39.58a2.15,2.15,0,0,1-2.15-2.15v-7a2.15,2.15,0,0,1,2.15-2.15H88.42A2.15,2.15,0,0,1,90.57,74.26Zm0-19.4v7A2.14,2.14,0,0,1,88.42,64H39.58a2.14,2.14,0,0,1-2.15-2.14v-7a2.15,2.15,0,0,1,2.15-2.15H88.42A2.15,2.15,0,0,1,90.57,54.86ZM37.43,42V35a2.15,2.15,0,0,1,2.15-2.15H88.42A2.15,2.15,0,0,1,90.57,35v7a2.15,2.15,0,0,1-2.15,2.15H39.58A2.15,2.15,0,0,1,37.43,42Z"/><path  d="M77.78,36.48a2,2,0,1,0,2,2A2,2,0,0,0,77.78,36.48Zm0,3.06a1,1,0,1,1,1-1A1,1,0,0,1,77.78,39.54Z"/><path  d="M84.92,36.48a2,2,0,1,0,2,2A2,2,0,0,0,84.92,36.48Zm0,3.06a1,1,0,1,1,1-1A1,1,0,0,1,84.92,39.54Z"/><path  d="M77.78,60.39a2,2,0,1,0-2-2A2,2,0,0,0,77.78,60.39Zm0-3.06a1,1,0,1,1-1,1A1,1,0,0,1,77.78,57.33Z"/><path  d="M84.92,60.39a2,2,0,1,0-2-2A2,2,0,0,0,84.92,60.39Zm0-3.06a1,1,0,1,1-1,1A1,1,0,0,1,84.92,57.33Z"/><path  d="M77.78,79.78a2,2,0,1,0-2-2A2,2,0,0,0,77.78,79.78Zm0-3.06a1,1,0,1,1-1,1A1,1,0,0,1,77.78,76.72Z"/><path  d="M84.92,79.78a2,2,0,1,0-2-2A2,2,0,0,0,84.92,79.78Zm0-3.06a1,1,0,1,1-1,1A1,1,0,0,1,84.92,76.72Z"/></g></svg>