<svg xmlns="http://www.w3.org/2000/svg" viewBox="0 0 128 128"><defs><style>.cls-1{fill:#3c3c3b;}</style></defs><title>stroke_chart</title><g id="chart"><path class="cls-1" d="M64,30.39A33.68,33.68,0,0,0,31,57.46,34,34,0,0,0,30.39,64,33.61,33.61,0,1,0,64,30.39ZM35.17,53.69a31,31,0,0,1,2.88-5.47V55.4l-3.11-1.06C35,54.13,35.09,53.91,35.17,53.69Zm4.88-8.16A31.47,31.47,0,0,1,43.5,42v15.3l-3.45-1.18Zm5.45-5.18A32.66,32.66,0,0,1,49.17,38V59.19L45.5,57.94ZM51.17,37A31.54,31.54,0,0,1,55,35.56V61.17l-3.8-1.3Zm5.8.42,5.68,26.38L57,61.85Zm7,57.2A30.64,30.64,0,0,1,34,58c.12-.6.26-1.19.41-1.77l31,10.55L58.27,33.93A31,31,0,0,1,64,33.39a30.61,30.61,0,0,1,0,61.22Z"/></g></svg>