<svg xmlns="http://www.w3.org/2000/svg" viewBox="0 0 128 128"><g><path  d="M96.54,53.72h-3V43c0-4.6-2.25-10.08-13-10.08H31.46V95H80.6c11.69,0,13-7.72,13-11V74.28h3ZM90.55,84a10,10,0,0,1-.16,1.86H84.86v1h5.27C89,90.26,85.8,92,80.6,92H34.46V42.14h7.29v-1H34.46V36H80.6c7.15,0,9.25,2.48,9.78,5.18H83.27v1h7.24c0,.3,0,.6,0,.9V53.72H73c-4.46,0-8.22,4.65-8.22,10.16v.37c0,5.44,3.76,10,8.22,10H90.55Zm3-12.72H73c-2.78,0-5.22-3.28-5.22-7v-.37c0-3.75,2.49-7.16,5.22-7.16H93.54Z"/><rect  x="46.54" y="41.14" width="7.98" height="1"/><rect  x="59.31" y="41.14" width="7.99" height="1"/><rect  x="70.49" y="41.14" width="7.98" height="1"/><rect  x="35.36" y="85.86" width="7.98" height="1"/><rect  x="48.14" y="85.86" width="7.98" height="1"/><rect  x="60.91" y="85.86" width="7.98" height="1"/><rect  x="72.09" y="85.86" width="7.99" height="1"/><path  d="M70.86,63.62a3.52,3.52,0,1,0,3.52-3.51A3.53,3.53,0,0,0,70.86,63.62Zm3.52-2a2,2,0,1,1-2,2A2,2,0,0,1,74.38,61.61Z"/></g></svg>