<svg xmlns="http://www.w3.org/2000/svg" viewBox="0 0 128 128"><defs><style>.cls-1{fill:#3c3c3b;}</style></defs><title>stroke_case</title><g id="case"><path class="cls-1" d="M87.86,42.6H75.92v-.52c0-3.79-3-6.54-7.19-6.54h-9.5c-4.14,0-7.15,2.75-7.15,6.54v.52H40.71c-4.31,0-8.15,4.93-8.15,8.82V84.71c0,4.06,3.88,7.75,8.15,7.75H87.86a7.77,7.77,0,0,0,7.58-7.75V51.42C95.44,47.34,92.13,42.6,87.86,42.6Zm-32.78-.52c0-2.12,1.67-3.54,4.15-3.54h9.5c2.5,0,4.19,1.42,4.19,3.54v.52H55.08ZM40.71,45.6H87.86c2.36,0,4.58,3.28,4.58,5.82V64.83h-23a5.25,5.25,0,0,0-5.13-4.16h-.62a5.25,5.25,0,0,0-5.13,4.16h-23V51.42C35.56,48.81,38.4,45.6,40.71,45.6ZM67.56,65.92v.62a3.26,3.26,0,0,1-3.25,3.25h-.62a3.26,3.26,0,0,1-3.25-3.25v-.62a3.26,3.26,0,0,1,3.25-3.25h.62A3.26,3.26,0,0,1,67.56,65.92Zm20.3,23.54H40.71c-2.6,0-5.15-2.35-5.15-4.75V66.33H58.44v.21a5.26,5.26,0,0,0,5.25,5.25h.62a5.26,5.26,0,0,0,5.25-5.25v-.21H92.44V84.71A4.79,4.79,0,0,1,87.86,89.46Z"/></g></svg>