<svg xmlns="http://www.w3.org/2000/svg" viewBox="0 0 128 128"><defs><style>.cls-1{fill:#3c3c3b;}</style></defs><title>stroke_pin</title><g id="pin"><path class="cls-1" d="M98.11,53.59l-23.7-23.7a2.42,2.42,0,0,0-2.34-.64A2.48,2.48,0,0,0,70.32,31a28.37,28.37,0,0,0-1.07,6.83L51,56.06a29,29,0,0,0-10.34.55,2.38,2.38,0,0,0-1.76,1.69,2.44,2.44,0,0,0,.62,2.41l11,11L32.33,89.84a.7.7,0,0,0-.19.29l-2.38,7.16a.75.75,0,0,0,.18.77.77.77,0,0,0,.53.22.67.67,0,0,0,.24,0l7.16-2.38a.7.7,0,0,0,.29-.19L56.33,77.51l11,11a2.46,2.46,0,0,0,1.73.72,2.74,2.74,0,0,0,.69-.1,2.4,2.4,0,0,0,1.68-1.76A28.55,28.55,0,0,0,71.94,77L90.18,58.75A28.37,28.37,0,0,0,97,57.68a2.48,2.48,0,0,0,1.74-1.75A2.42,2.42,0,0,0,98.11,53.59ZM37.22,94.49l-5.56,1.85,1.85-5.56,18-18,3.72,3.71Zm31.7-8.06L41.57,59.08a25.94,25.94,0,0,1,9-.45L69.39,76.45a2.5,2.5,0,0,0,0,.82A25.58,25.58,0,0,1,68.92,86.43ZM70.15,75.1,52.37,58.29a2.06,2.06,0,0,0,.41-.32L70.65,40.1,88.38,56.87ZM90.07,56.15l-.24,0L71.61,38.94a2.31,2.31,0,0,0,.24-1,24.3,24.3,0,0,1,.92-6L96.08,55.23A24.3,24.3,0,0,1,90.07,56.15Z"/></g></svg>