<svg xmlns="http://www.w3.org/2000/svg" viewBox="0 0 128 128"><defs><style>.cls-1{fill:#3c3c3b;}</style></defs><title>stroke_cube</title><g id="cube"><path class="cls-1" d="M98.15,78.87V49.77a4.48,4.48,0,1,0-4.4-7.63L68.39,27.53a4.42,4.42,0,0,0,0-1.5,4.48,4.48,0,0,0-8.86,1.4c0,.06,0,.11,0,.17l-25,14.85a4.48,4.48,0,1,0-4.74,7.32V78.85a4.48,4.48,0,0,0,1.5,8.71A4.41,4.41,0,0,0,33.51,87l26,14.72a2.45,2.45,0,0,0,0,.27A4.49,4.49,0,0,0,64,105.75a4.2,4.2,0,0,0,.7,0,4.49,4.49,0,0,0,3.78-4.19l25-15.32a4.48,4.48,0,0,0,3.2,1.37,4.23,4.23,0,0,0,.7-.06,4.47,4.47,0,0,0,.8-8.63ZM93,80.43a4.42,4.42,0,0,0-.82,3L67.55,98.56A4.5,4.5,0,0,0,65,96.9V68.35a4.48,4.48,0,0,0,3.44-5l25-14.77a4.46,4.46,0,0,0,1.74,1.15V78.85A4.46,4.46,0,0,0,93,80.43ZM60.33,98.7l-24.81-14a4.41,4.41,0,0,0-2.67-5.8V49.77a4.61,4.61,0,0,0,1.44-.85L59.62,63.08a4.4,4.4,0,0,0,0,1.62A4.48,4.48,0,0,0,63,68.36V96.91A4.52,4.52,0,0,0,60.33,98.7ZM64,31.22a4.23,4.23,0,0,0,.7-.06,4.39,4.39,0,0,0,2.2-1l25.35,14.6a4.49,4.49,0,0,0,0,1.51,5.28,5.28,0,0,0,.16.66L67.71,61.5a4.46,4.46,0,0,0-7.25-.24l-25-14a4.31,4.31,0,0,0,.33-2.06l25.34-15A4.48,4.48,0,0,0,64,31.22Zm.39,35.24a2.49,2.49,0,1,1,2.07-2.85A2.5,2.5,0,0,1,64.39,66.46ZM96.26,43.09a2.49,2.49,0,1,1-2.07,2.84A2.49,2.49,0,0,1,96.26,43.09ZM63.61,24.28a2.49,2.49,0,1,1-2.07,2.84A2.49,2.49,0,0,1,63.61,24.28ZM28.9,45.93A2.49,2.49,0,1,1,31.74,48,2.48,2.48,0,0,1,28.9,45.93Zm2.84,39.6A2.49,2.49,0,0,1,31,80.62a2.43,2.43,0,0,1,1.85.44,2.48,2.48,0,0,1-1.07,4.47Zm32.65,18.19a2.49,2.49,0,1,1,2.07-2.84A2.5,2.5,0,0,1,64.39,103.72ZM97,85.53a2.49,2.49,0,1,1-.78-4.91,2.47,2.47,0,0,1,2.84,2.06A2.49,2.49,0,0,1,97,85.53Z"/></g></svg>