<?xml version="1.0" encoding="utf-8"?>
<svg version="1.1" xmlns="http://www.w3.org/2000/svg" xmlns:xlink="http://www.w3.org/1999/xlink" viewBox="0 0 100 100" style="enable-background:new 0 0 100 100;" xml:space="preserve">
<path d="M75.1,37.2L75.1,37.2L56.5,17.8H30c-3,0-5.5,2.5-5.5,5.5v53.4c0,3,2.5,5.5,5.5,5.5h40c3,0,5.5-2.5,5.5-5.5V37.5L75.1,37.2z
	 M56.9,22.5l14,14.6h-7.1c-4,0-6.9-2.5-6.9-6V22.5z M70,79.2H30c-1.4,0-2.5-1.1-2.5-2.5V23.3c0-1.4,1.1-2.5,2.5-2.5h24.9v10.3
	c0,4.6,3.8,8,8.9,8h8.6v37.6C72.5,78.1,71.4,79.2,70,79.2z"/>
<path d="M45.1,56.4v12.8c0,1.5-1,2.9-2.4,3.5c-1.8,1.1-4.1,0.7-5.5-0.9c-0.9-1.4-0.2-3.5,2-4.6c1.3-0.7,2.8-0.8,4.2-0.3V50.2
	l16.5-3.3v20.7c-0.1,1.5-1,2.9-2.4,3.5c-1.8,1.1-4.1,0.8-5.5-0.8c-0.9-1.3-0.2-3.5,2-4.6c1.3-0.7,2.8-0.8,4.2-0.3V53.6L45.1,56.4z"
	/>
</svg>
