<svg xmlns="http://www.w3.org/2000/svg" viewBox="0 0 128 128"><defs><style>.cls-1{fill:#3c3c3b;}</style></defs><title>stroke_lab</title><g id="lab"><path class="cls-1" d="M94.37,84.92,74.28,54V41A4.37,4.37,0,0,0,78,36.39c0-2.54-1.8-4.6-4-4.6H54c-2.21,0-4,2.06-4,4.6A4.37,4.37,0,0,0,53.72,41V54L33.63,84.91a7.62,7.62,0,0,0-1.22,4.17c0,3.94,2.92,7.13,6.52,7.13H89.07c3.6,0,6.52-3.19,6.52-7.13A7.56,7.56,0,0,0,94.37,84.92ZM53,36.39c0-.92.54-1.6,1-1.6H74c.47,0,1,.68,1,1.6S74.5,38,74,38H54C53.5,38,53,37.31,53,36.39Zm3.76,18.46V41H71.28V54.85l16,24.7H40.69l1.47-2.26H47a.75.75,0,1,0,0-1.5H43.13l1.47-2.26h4.8a.75.75,0,1,0,0-1.5H45.57l1.68-2.59h3.9a.75.75,0,1,0,0-1.5H48.23L50.13,65h3.21a.75.75,0,0,0,0-1.5H51.11ZM89.07,93.21H38.93c-1.94,0-3.52-1.85-3.52-4.13a4.63,4.63,0,0,1,.74-2.53l3.66-5.64v.14H88.28l3.57,5.5a4.63,4.63,0,0,1,.74,2.53C92.59,91.36,91,93.21,89.07,93.21Z"/></g></svg>