<svg width="101" height="100" viewBox="0 0 101 100" fill="none" xmlns="http://www.w3.org/2000/svg">
<path d="M71.6731 41.0939H61.0291C58.6622 41.0653 56.403 40.1945 54.7403 38.6699C53.0777 37.1454 52.1455 35.0897 52.1457 32.948V23.3176C52.1457 23.0776 52.251 22.8473 52.4386 22.6776C52.6263 22.5079 52.8808 22.4125 53.1461 22.4125C53.4114 22.4125 53.6659 22.5079 53.8536 22.6776C54.0413 22.8473 54.1465 23.0776 54.1465 23.3176V32.948C54.1461 34.6131 54.866 36.2123 56.1525 37.4031C57.4385 38.594 59.1892 39.282 61.0291 39.3199H71.6731C71.9384 39.3199 72.1929 39.4153 72.3806 39.585C72.5683 39.7547 72.6735 39.9849 72.6735 40.225C72.6735 40.465 72.5683 40.6953 72.3806 40.865C72.1929 41.0348 71.9384 41.1301 71.6731 41.1301V41.0939Z" fill="black"/>
<path d="M67.2715 82.3305H30.6977C29.2543 82.3305 27.8701 81.8117 26.8495 80.8885C25.8289 79.9649 25.2556 78.7126 25.2556 77.4067V26.7208C25.2341 26.0621 25.3591 25.4062 25.623 24.792C25.8869 24.1779 26.2843 23.6178 26.7918 23.1452C27.2993 22.6725 27.9065 22.2968 28.5774 22.0404C29.2483 21.7839 29.9693 21.6519 30.6977 21.6522H53.0261C53.1617 21.6539 53.2954 21.6804 53.419 21.7301C53.5431 21.7799 53.6543 21.852 53.7464 21.9419L72.3934 38.813C72.4863 38.8913 72.5595 38.9868 72.6079 39.093C72.6563 39.1992 72.6787 39.3137 72.6735 39.4285V77.4067C72.6787 78.0515 72.5431 78.6909 72.2738 79.2882C72.0049 79.8852 71.6075 80.4283 71.1057 80.8863C70.6036 81.3439 70.0061 81.707 69.3483 81.955C68.69 82.203 67.9842 82.3305 67.2715 82.3305ZM30.6977 23.4624C29.7882 23.4718 28.9189 23.8029 28.2758 24.3848C27.6327 24.9666 27.2668 25.7531 27.2564 26.576V77.2619C27.2668 78.0848 27.6327 78.8712 28.2758 79.453C28.9189 80.0351 29.7882 80.366 30.6977 80.3754H67.2715C68.1774 80.366 69.0422 80.0337 69.6792 79.4508C70.3158 78.8679 70.6728 78.0815 70.6728 77.2619V39.8267L52.6259 23.4624H30.6977Z" fill="black"/>
<path d="M32.6614 37.856H51.6686M32.6614 45.0969H48.5073M32.6614 52.3378H33.1557M59.2945 59.5786H63.6733M32.6614 59.5786H48.9927M32.6614 66.8195H63.6733" stroke="black" stroke-linecap="round"/>
<path d="M36.3367 50.5432C35.4527 50.5432 34.7361 51.1916 34.7361 51.9914C34.7361 52.7911 35.4527 53.4395 36.3367 53.4395V50.5432ZM63.781 53.0152C64.406 52.4497 64.406 51.533 63.781 50.9675L53.5947 41.7512C52.9697 41.1857 51.9561 41.1857 51.331 41.7512C50.706 42.3168 50.706 43.2337 51.331 43.7993L60.3853 51.9914L51.331 60.1833C50.706 60.7492 50.706 61.6658 51.331 62.2314C51.9561 62.7969 52.9697 62.7969 53.5947 62.2314L63.781 53.0152ZM36.3367 53.4395H62.6489V50.5432H36.3367V53.4395Z" fill="black"/>
</svg>
