<svg xmlns="http://www.w3.org/2000/svg" viewBox="0 0 128 128"><defs><style>.cls-1{fill:#3c3c3b;}</style></defs><title>stroke_devices</title><g id="devices"><path class="cls-1" d="M95.58,33.05H49.09c-4.22,0-7.62,4.61-7.62,8.43v6.44H30.38A5.4,5.4,0,0,0,25,53.31v34a5.39,5.39,0,0,0,5.39,5.38H45.47a5.39,5.39,0,0,0,5.39-5.38V80h9.38v4.57c0,1.56-1.84,2.87-4,2.87H56a3.5,3.5,0,0,0,0,7H89a3.5,3.5,0,0,0,0-7H87.12c-2.1,0-3.88-1.33-3.88-2.91V80H95.58c4.08,0,7.93-3.68,7.93-7.57v-31C103.51,37.76,99.78,33.05,95.58,33.05ZM44.47,41.48c0-2.32,2.28-5.43,4.62-5.43H95.58c2.38,0,4.93,3.19,4.93,5.43V69.35H50.86v-16a5.4,5.4,0,0,0-5.39-5.39h-1Zm4.39,45.84a3.38,3.38,0,0,1-3.39,3.38H30.38A3.38,3.38,0,0,1,27,87.32v-34a3.39,3.39,0,0,1,3.39-3.39H45.47a3.39,3.39,0,0,1,3.39,3.39Zm38.26,2.13H89a1.5,1.5,0,0,1,0,3H56a1.5,1.5,0,0,1,0-3h.21c3.32,0,6-2.18,6-4.87V80h19v4.53C81.24,87.25,83.88,89.45,87.12,89.45ZM95.58,77H50.86V71.35h49.65v1.09C100.51,74.7,98,77,95.58,77Z"/><path class="cls-1" d="M37.69,84.06A1.89,1.89,0,1,0,39.59,86,1.89,1.89,0,0,0,37.69,84.06Zm0,2.78a.89.89,0,1,1,.9-.89A.89.89,0,0,1,37.69,86.84Z"/><path class="cls-1" d="M30.89,82.4H45V54.52H30.89ZM32.39,56H43.45V80.9H32.39Z"/><path class="cls-1" d="M93.15,42.74H75.51l-.12-.15-.18.15H74.06v21.6H93.15Zm-1.5,1.5V62L76.77,44.24Zm-16.09.9,14.81,17.7H75.56Z"/><path class="cls-1" d="M54.76,44.24H69.93a.75.75,0,0,0,0-1.5H54.76a.75.75,0,0,0,0,1.5Z"/><path class="cls-1" d="M54.76,50.94H69.93a.75.75,0,0,0,0-1.5H54.76a.75.75,0,1,0,0,1.5Z"/><path class="cls-1" d="M54.76,57.64H69.93a.75.75,0,0,0,0-1.5H54.76a.75.75,0,0,0,0,1.5Z"/><path class="cls-1" d="M54.76,64.34H69.93a.75.75,0,0,0,0-1.5H54.76a.75.75,0,1,0,0,1.5Z"/></g></svg>