<svg xmlns="http://www.w3.org/2000/svg" viewBox="0 0 128 128"><defs><style>.cls-1{fill:#3c3c3b;}</style></defs><title>stroke_filter</title><g id="filter"><path class="cls-1" d="M43,52.89h5.42a4.56,4.56,0,0,0,8.91,0H85v-2H57.3a4.56,4.56,0,0,0-8.91,0H43Zm9.88-4.07a3.08,3.08,0,1,1-3.08,3.07A3.08,3.08,0,0,1,52.85,48.82Z"/><path class="cls-1" d="M72,69.21a4.58,4.58,0,0,0,4.45-3.57H85v-2H76.42a4.56,4.56,0,0,0-8.91,0H43v2H67.51A4.58,4.58,0,0,0,72,69.21Zm0-7.65a3.08,3.08,0,1,1-3.08,3.08A3.08,3.08,0,0,1,72,61.56Z"/><path class="cls-1" d="M85,75.11H57.73a4.56,4.56,0,0,0-8.91,0H43v2h5.85a4.56,4.56,0,0,0,8.91,0H85ZM53.27,79.18a3.08,3.08,0,1,1,3.08-3.07A3.08,3.08,0,0,1,53.27,79.18Z"/><path class="cls-1" d="M92.33,32.47H35.67a5.6,5.6,0,0,0-5.59,5.59V89.94a5.6,5.6,0,0,0,5.59,5.59H92.33a5.6,5.6,0,0,0,5.59-5.59V38.06A5.6,5.6,0,0,0,92.33,32.47Zm2.59,57.47a2.59,2.59,0,0,1-2.59,2.59H35.67a2.59,2.59,0,0,1-2.59-2.59V38.06a2.59,2.59,0,0,1,2.59-2.59H92.33a2.59,2.59,0,0,1,2.59,2.59Z"/></g></svg>