<svg xmlns="http://www.w3.org/2000/svg" viewBox="0 0 128 128"><g><path  d="M104,53.9A4.75,4.75,0,0,0,98.6,50a4.66,4.66,0,0,0-2.18,1l-8.25-5.41a4.59,4.59,0,0,0,.11-2,4.81,4.81,0,0,0-.25-.94l5.3-4.33a1.22,1.22,0,0,0,.17.15,4.67,4.67,0,0,0,2.78.91,4.79,4.79,0,0,0,3.85-2,4.75,4.75,0,0,0-4.58-7.48,4.74,4.74,0,0,0-4,5.43c0,.13.07.26.1.39l-5.59,4.57a4.69,4.69,0,0,0-3.26-.69,4.85,4.85,0,0,0-.63.16L72.16,25.6c.06-.07.12-.12.17-.19a4.68,4.68,0,0,0,.85-3.53,4.76,4.76,0,1,0-4,5.43c.14,0,.26-.07.4-.1L79.77,41.5h0A4.73,4.73,0,0,0,78.91,45c0,.15.07.29.1.43L64,55.13c-.06-.05-.11-.11-.17-.15a4.74,4.74,0,1,0-5.58,7.67,4.43,4.43,0,0,0,1.35.69L60,89.25a4.73,4.73,0,0,0-2.14,1.53L33.4,81.92a6.35,6.35,0,0,0,0-.87,4.73,4.73,0,0,0-1.9-3.1,4.75,4.75,0,1,0-2.79,8.59,4.73,4.73,0,0,0,3.71-1.81L56.8,93.6a5,5,0,0,0,.05.86c0,.16.08.31.12.46l-10.3,6.75-.14-.13a4.73,4.73,0,0,0-3.53-.85,4.75,4.75,0,0,0,.73,9.44,4.84,4.84,0,0,0,.75-.06,4.73,4.73,0,0,0,3.94-5.43,3.43,3.43,0,0,0-.11-.46l10.3-6.75a4.64,4.64,0,0,0,3.67,1,4.75,4.75,0,0,0,3.61-2.82l12,1a4.73,4.73,0,1,0,.24-3l-12-1A4.73,4.73,0,0,0,63,89.22L62.6,63.29a4.72,4.72,0,0,0,3.13-5.22c0-.14-.08-.28-.11-.42l15-9.66c.06,0,.11.11.17.15a4.7,4.7,0,0,0,3.53.85,4.8,4.8,0,0,0,2.19-1l8.24,5.41a4.74,4.74,0,1,0,9.27.47ZM30.88,83.41A2.75,2.75,0,0,1,26,82.22a2.75,2.75,0,0,1,2.28-3.14,3.25,3.25,0,0,1,.44,0,2.73,2.73,0,0,1,1.6.52,2.69,2.69,0,0,1,1.1,1.79A2.73,2.73,0,0,1,30.88,83.41Zm51.2,9.34a3.11,3.11,0,0,1,.43,0,2.74,2.74,0,0,1,1.61.52,2.69,2.69,0,0,1,1.1,1.8,2.75,2.75,0,1,1-3.14-2.29ZM94.07,33A2.74,2.74,0,0,1,99,34.18a2.7,2.7,0,0,1-.49,2,2.75,2.75,0,0,1-3.84.61,2.76,2.76,0,0,1-.6-3.84ZM66.88,24.84a2.74,2.74,0,0,1,1.18-4.93,3.27,3.27,0,0,1,.44,0,2.75,2.75,0,1,1-1.62,5ZM46,107a2.75,2.75,0,0,1-3.84.61,2.77,2.77,0,0,1-1.1-1.79,2.73,2.73,0,0,1,.5-2,2.69,2.69,0,0,1,1.79-1.09,2.09,2.09,0,0,1,.43,0,2.68,2.68,0,0,1,1.61.53A2.74,2.74,0,0,1,46,107Zm18.29-13.7A2.74,2.74,0,1,1,61.11,91a3.13,3.13,0,0,1,.43,0A2.75,2.75,0,0,1,64.25,93.29Zm-1-32.86a2.77,2.77,0,0,1-1.8,1.1,2.71,2.71,0,0,1-2-.5,2.74,2.74,0,0,1-1.1-1.79,2.71,2.71,0,0,1,.5-2,2.74,2.74,0,0,1,1.79-1.1,3.11,3.11,0,0,1,.43,0,2.74,2.74,0,0,1,1.61.52,2.69,2.69,0,0,1,1.1,1.8A2.75,2.75,0,0,1,63.26,60.43ZM84,47a2.75,2.75,0,1,1,2.29-3.14A2.75,2.75,0,0,1,84,47ZM99.77,57.35a2.75,2.75,0,0,1-3.14-2.28,2.74,2.74,0,1,1,3.14,2.28Z"/></g></svg>