<svg xmlns="http://www.w3.org/2000/svg" viewBox="0 0 128 128"><defs><style>.cls-1{fill:#3c3c3b;}</style></defs><title>stroke_centralization</title><g id="centralization"><path class="cls-1" d="M99.07,84.57a4.75,4.75,0,0,0-5.43-3.94,4.68,4.68,0,0,0-2.83,1.59L67.9,72.8a4.51,4.51,0,0,0-.05-1,4.9,4.9,0,0,0-.37-1.18l11.81-10.8a4.71,4.71,0,0,0,2.17.54,5,5,0,0,0,.76-.06,4.75,4.75,0,0,0,2-8.53A4.78,4.78,0,0,0,80.74,51a4.75,4.75,0,0,0-3.95,5.43,4.83,4.83,0,0,0,.42,1.3L65.45,68.44a4,4,0,0,0-.76-.34l-.25-35.89a4.73,4.73,0,1,0-5.12-7.34,4.78,4.78,0,0,0-.85,3.53,4.68,4.68,0,0,0,1.9,3.1,4.6,4.6,0,0,0,1.07.57l.25,36a4.67,4.67,0,0,0-2.17,1.49l-24.25-8.8a4.18,4.18,0,0,0-.05-.86,4.75,4.75,0,1,0-4.69,5.49,4.62,4.62,0,0,0,.74-.06,4.74,4.74,0,0,0,3-1.75l24.18,8.78a5.09,5.09,0,0,0,0,1c0,.15.08.29.12.44L45.66,81.62a2.85,2.85,0,0,0-.26-.23,4.74,4.74,0,1,0,1.9,3.1c0-.11-.06-.21-.08-.31l13-7.91a2,2,0,0,0,.16.14,4.75,4.75,0,0,0,1.39.69l.13,18.75a4.72,4.72,0,0,0-3.17,5.23,4.76,4.76,0,0,0,4.68,4,4.73,4.73,0,0,0,1.49-9.23L64.76,77a4.76,4.76,0,0,0,2-1.45L89.65,85a5.4,5.4,0,0,0,0,1.06,4.75,4.75,0,1,0,9.38-1.48ZM79.25,54a2.71,2.71,0,0,1,1.8-1.1,3.11,3.11,0,0,1,.43,0,2.74,2.74,0,0,1,1.61.52,2.75,2.75,0,0,1,.61,3.84,2.74,2.74,0,0,1-1.8,1.09,2.7,2.7,0,0,1-2-.49A2.74,2.74,0,0,1,79.25,54ZM60.45,28.09a2.7,2.7,0,0,1,.49-2A2.77,2.77,0,0,1,62.73,25a3.25,3.25,0,0,1,.44,0,2.78,2.78,0,0,1,1.61.52,2.76,2.76,0,0,1,.6,3.84,2.77,2.77,0,0,1-1.79,1.1,2.71,2.71,0,0,1-2-.5A2.67,2.67,0,0,1,60.45,28.09ZM31,63.35a2.74,2.74,0,0,1-.86-5.42l.43,0A2.74,2.74,0,0,1,31,63.35ZM44.83,86.84A2.69,2.69,0,0,1,43,87.94a2.74,2.74,0,0,1-.86-5.42,2.18,2.18,0,0,1,.44,0,2.75,2.75,0,0,1,2.21,4.36ZM66.12,99.91a2.74,2.74,0,0,1-4.32,2.65,2.75,2.75,0,0,1-.61-3.84,2.74,2.74,0,0,1,4.93,1.19Zm-.74-25.72a2.75,2.75,0,1,1-2.65-4.33,3.27,3.27,0,0,1,.44,0,2.75,2.75,0,0,1,2.21,4.37ZM94.81,88A2.75,2.75,0,0,1,94,82.6l.43,0A2.75,2.75,0,0,1,94.81,88Z"/></g></svg>