<svg xmlns="http://www.w3.org/2000/svg" viewBox="0 0 128 128"><defs><style>.cls-1{fill:#3c3c3b;}</style></defs><title>stroke_window</title><g id="window"><path class="cls-1" d="M89,38H39.11c-4.19,0-8,4.11-8,8.61V81.87a8.29,8.29,0,0,0,8,8.13H89a8.11,8.11,0,0,0,7.87-8.13V46.61C96.91,42.55,93.54,38,89,38ZM39.11,41H89c2.74,0,4.87,3,4.87,5.61v1.57H34.09V46.61C34.09,43.78,36.58,41,39.11,41Zm-5,39.84V49.68H93.91V80.84ZM89,87H39.11a5.29,5.29,0,0,1-5-4.66H93.86A5.1,5.1,0,0,1,89,87Z"/><circle class="cls-1" cx="40.22" cy="44.54" r="1.33"/><path class="cls-1" d="M44.49,45.88a1.34,1.34,0,1,0-1.33-1.34A1.34,1.34,0,0,0,44.49,45.88Z"/><path class="cls-1" d="M48.77,45.88a1.34,1.34,0,1,0-1.34-1.34A1.34,1.34,0,0,0,48.77,45.88Z"/><path class="cls-1" d="M71.61,54.46l-.13-.15-.18.15H70.16v21.6H89.25V54.46ZM87.75,56V73.74L72.87,56Zm-16.09.89L86.47,74.56H71.66Z"/></g></svg>