<svg xmlns="http://www.w3.org/2000/svg" viewBox="0 0 128 128"><g><path  d="M97.13,31.75l-.44-.44a8.07,8.07,0,0,0-8.41-1.89l0,0c-2.18-1.68-4.92-1.81-6.56-.17l-23,23c-1.46,1.46-1.5,3.8-.3,5.84L37.88,78.61a1.51,1.51,0,0,0-.34.52L31.69,94.21a1.5,1.5,0,0,0,1.4,2,1.59,1.59,0,0,0,.48-.07l15.68-5.26a1.45,1.45,0,0,0,.59-.36L95.39,45l.09-.11.14-.12L97,43.4A8.24,8.24,0,0,0,97.13,31.75ZM41.63,79.1l18.8-18.79a6,6,0,0,0,3.42,1.17,4.08,4.08,0,0,0,2.94-1.17l21.7-21.7L93,43.14,49.34,86.81Zm19.2-24.74,23-23a1.14,1.14,0,0,1,.81-.28,3.39,3.39,0,0,1,2.24,1.07c1.09,1.1,1.32,2.51.79,3l-23,23c-.54.53-2,.31-3.05-.79S60.3,54.89,60.83,54.36ZM40.22,80.52l7.69,7.69L35.65,92.32ZM94.88,41.28l-.45.44-4.54-4.54A4.65,4.65,0,0,0,90.35,32a5.05,5.05,0,0,1,4.22,1.42l.44.45A5.24,5.24,0,0,1,94.88,41.28Z"/></g></svg>