<svg xmlns="http://www.w3.org/2000/svg" viewBox="0 0 128 128"><defs><style>.cls-1{fill:#3c3c3b;}</style></defs><title>stroke_attention</title><g id="attention"><path class="cls-1" d="M98,84.49,70.19,36.37a7.14,7.14,0,0,0-12.38,0L30,84.49a7.15,7.15,0,0,0,6.19,10.72H91.78A7.15,7.15,0,0,0,98,84.49Zm-2.25,5.84a4.5,4.5,0,0,1-3.94,2.28H36.22a4.55,4.55,0,0,1-3.94-6.82L60.06,37.67a4.55,4.55,0,0,1,7.88,0L95.72,85.79A4.5,4.5,0,0,1,95.72,90.33Z"/><path class="cls-1" d="M66.74,78.24H61.26a.75.75,0,0,0-.75.75v5.49a.75.75,0,0,0,.75.75h5.48a.75.75,0,0,0,.75-.75V79A.75.75,0,0,0,66.74,78.24ZM66,83.73H62v-4h4Z"/><path class="cls-1" d="M66.74,51.71H61.26a.75.75,0,0,0-.75.75V74.22a.75.75,0,0,0,.75.75h5.48a.75.75,0,0,0,.75-.75V52.46A.75.75,0,0,0,66.74,51.71ZM66,73.47H62V53.21h4Z"/></g></svg>