<svg xmlns="http://www.w3.org/2000/svg" viewBox="0 0 128 128"><g><path  d="M97.5,28.5h-67A6.51,6.51,0,0,0,24,35V78a6.51,6.51,0,0,0,6.5,6.5H51.75v4.62c0,1.56-1.84,2.88-4,2.88h-.21a3.5,3.5,0,0,0,0,7h33a3.5,3.5,0,0,0,0-7H78.63c-2.1,0-3.88-1.33-3.88-2.91V84.5H97.5A6.51,6.51,0,0,0,104,78V35A6.51,6.51,0,0,0,97.5,28.5Zm-67,3h67A3.5,3.5,0,0,1,101,35V70H27V35A3.5,3.5,0,0,1,30.5,31.5ZM78.63,94h1.85a1.5,1.5,0,0,1,0,3h-33a1.5,1.5,0,0,1,0-3h.21c3.32,0,6-2.19,6-4.88V84.5h19v4.59C72.75,91.8,75.39,94,78.63,94ZM97.5,81.5h-67A3.5,3.5,0,0,1,27,78V71h74v7A3.5,3.5,0,0,1,97.5,81.5Z"/><path  d="M98.12,37.48H29.88V67.11H98.12Zm-1,28.63H30.88V38.48H97.12Z"/><path  d="M64,73a3,3,0,1,0,3,3A3,3,0,0,0,64,73Zm0,5a2,2,0,1,1,2-2A2,2,0,0,1,64,78Z"/></g></svg>