<svg xmlns="http://www.w3.org/2000/svg" viewBox="0 0 128 128"><g><path  d="M64,32.81A31.19,31.19,0,1,0,95.19,64,31.22,31.22,0,0,0,64,32.81Zm0,59.78A28.59,28.59,0,1,1,92.59,64,28.63,28.63,0,0,1,64,92.59Z"/><path  d="M78.33,54.3a.75.75,0,0,0-.22-.53l-3.88-3.88a.74.74,0,0,0-1.06,0L64,59.06l-9.17-9.17a.74.74,0,0,0-1.06,0l-3.88,3.88a.75.75,0,0,0,0,1.06L59.06,64l-9.17,9.17a.75.75,0,0,0,0,1.06l3.88,3.88a.74.74,0,0,0,1.06,0L64,68.94l9.17,9.17a.74.74,0,0,0,.53.22.73.73,0,0,0,.53-.22l3.88-3.88a.75.75,0,0,0,0-1.06L68.94,64l9.17-9.17A.75.75,0,0,0,78.33,54.3Zm-11,9.17a.75.75,0,0,0,0,1.06l9.17,9.17L73.7,76.52l-9.17-9.17a.75.75,0,0,0-1.06,0L54.3,76.52,51.48,73.7l9.17-9.17a.75.75,0,0,0,0-1.06L51.48,54.3l2.82-2.82,9.17,9.17a.75.75,0,0,0,1.06,0l9.17-9.17,2.82,2.82Z"/></g></svg>