<svg xmlns="http://www.w3.org/2000/svg" viewBox="0 0 128 128"><defs><style>.cls-1{fill:#3c3c3b;}</style></defs><title>stroke_speaker</title><g id="speaker"><path class="cls-1" d="M87.68,30.42c-.81,0-23.86,4.63-43.07,8.52a13.32,13.32,0,0,1-1.47.16c-4.61.39-15.39,1.3-15.39,16.56,0,9.6,4.68,14.68,9.42,16.42l.07,17.67a7.77,7.77,0,0,0,7.49,7.83c2.93,0,9.8,0,9.8-5.08,0,0,0-.09,0-.14L52.52,72h5.2l6.54,1.62C84.55,78.67,87,79.22,87.52,79.22c7.38,0,12.73-10.19,12.73-24.28v0C100.25,40.72,95,30.42,87.68,30.42ZM57.58,69a30.47,30.47,0,0,1-.1-29.47l-.16-.08c8.35-1.68,16.93-3.4,22.86-4.57-3.16,3.82-5.32,10.3-5.65,17.91h0c0,.68,0,1.37,0,2.07s0,1.34,0,2v0c.31,7.34,2.32,13.63,5.3,17.51C75,73.2,69.06,71.72,65,70.7,58.12,69,58.12,69,57.88,69ZM87.75,33.42c5.33.09,9.5,9.49,9.5,21.48V55c0,11.85-4.23,21.15-9.64,21.24-.51-.08-2.51-.55-5.21-1.21-2.48-2.29-4.46-6.39-5.54-11.46,3.09-.09,5.49-3.92,5.49-8.8S80,46.09,76.91,46c1.13-5.22,3.24-9.4,5.85-11.6C85.5,33.83,87.32,33.48,87.75,33.42Zm-11.12,14h.12c2.22,0,4.1,3.34,4.1,7.3s-1.88,7.31-4.1,7.31H76.6A41.13,41.13,0,0,1,76,56.71v-.12c0-.58,0-1.16,0-1.74s0-1.21,0-1.81v-.1A41.37,41.37,0,0,1,76.63,47.46ZM44.73,94.58a4.8,4.8,0,0,1-4.49-4.83l-.07-17.84,9.29-.37,2.06,21C51.45,94.35,47.86,94.58,44.73,94.58ZM50.86,69a1.52,1.52,0,0,0-1.11.49.1.1,0,0,1,0,0l-10,.4a1.49,1.49,0,0,0-.68-.41c-1.38-.36-8.29-2.7-8.29-13.86,0-12.5,8.22-13.19,12.64-13.57a16.14,16.14,0,0,0,1.83-.21l10.46-2.11a31.83,31.83,0,0,0-3.45,14.41A32.28,32.28,0,0,0,55.86,69Z"/></g></svg>