<svg xmlns="http://www.w3.org/2000/svg" viewBox="0 0 128 128"><defs><style>.cls-1{fill:#3c3c3b;}</style></defs><title>stroke_data</title><g id="data"><path class="cls-1" d="M92.26,45.78a10.81,10.81,0,0,1-.12-1.17,4.18,4.18,0,0,0-1-2.65c-2.61-4.5-15.08-6.91-26.89-6.91-12.95,0-26.7,2.89-27.36,8.28a3.91,3.91,0,0,0-.26,1.36,9,9,0,0,1-.12,1.07l-.12,38.91,0,.3c1.08,5.24,15.29,8.48,27.83,8.48S91,90.21,92.07,85l0-.14L92.28,46V45.9Zm-3,11.94c-1.59,2.7-10.88,5.92-25.21,5.92-13,0-21.83-2.65-24.56-5.15l0-10.87c4.7,3.14,15,4.8,24.76,4.8,10,0,20.46-1.73,25-5Zm-25-19.3c15.2,0,24.9,3.67,24.9,6.19a2.35,2.35,0,0,0,0,.26c-2.13,2.6-11.22,5.55-24.91,5.55-13.21,0-22.12-2.75-24.64-5.28,0-.16,0-.31,0-.45C39.62,42.13,49.21,38.42,64.24,38.42ZM39.44,60.86c4.74,3.08,14.88,4.71,24.57,4.71,10.16,0,20.79-1.78,25.2-5.15l0,11.74C87.35,74.83,78.12,78,64,78,51,78,42.1,75.28,39.41,72.76Zm24.8,29.59c-14.18,0-24.11-3.85-24.86-6l0-9.33c4.72,3.1,14.88,4.73,24.6,4.73,10.11,0,20.69-1.77,25.14-5.1l-.05,9.7C88.36,86.59,78.43,90.45,64.24,90.45Z"/><path class="cls-1" d="M43.57,53.41a1.69,1.69,0,1,0,1.6,1.69A1.65,1.65,0,0,0,43.57,53.41Z"/><path class="cls-1" d="M43.26,67.89a1.69,1.69,0,1,0,1.6,1.69A1.65,1.65,0,0,0,43.26,67.89Z"/><path class="cls-1" d="M43.26,81.4a1.69,1.69,0,1,0,1.6,1.68A1.64,1.64,0,0,0,43.26,81.4Z"/></g></svg>