<svg width="101" height="100" viewBox="0 0 101 100" fill="none" xmlns="http://www.w3.org/2000/svg">
<path d="M71.9667 70.3125H28.8735C28.1113 70.3128 27.3566 70.1749 26.6542 69.9069C25.9518 69.639 25.3158 69.2468 24.7837 68.7529C24.2516 68.2591 23.8342 67.6739 23.5561 67.0317C23.278 66.3896 23.1449 65.7034 23.1646 65.014V35.0224C23.1449 34.3329 23.278 33.6469 23.5561 33.0048C23.8342 32.3626 24.2516 31.7774 24.7837 31.2836C25.3158 30.7897 25.9518 30.3973 26.6542 30.1294C27.3566 29.8615 28.1113 29.7236 28.8735 29.7239H45.632C45.7997 29.6754 45.9799 29.6754 46.1476 29.7239L53.0719 34.0227H71.9667C73.4779 34.0314 74.9243 34.5784 75.9928 35.5452C77.0616 36.512 77.666 37.8207 77.6756 39.1879V65.014C77.6955 65.7034 77.5622 66.3896 77.2841 67.0317C77.006 67.6739 76.5887 68.2591 76.0565 68.7529C75.5246 69.2468 74.8885 69.639 74.1862 69.9069C73.4838 70.1749 72.7291 70.3128 71.9667 70.3125ZM28.8735 31.3901C28.3454 31.3641 27.8173 31.4414 27.3251 31.6167C26.8329 31.7919 26.3882 32.061 26.0213 32.4056C25.6543 32.7503 25.3738 33.1624 25.1986 33.6139C25.0234 34.0655 24.9578 34.5459 25.0062 35.0224V65.014C24.9797 65.4798 25.0617 65.9454 25.2466 66.3809C25.4316 66.8161 25.7156 67.2117 26.0801 67.5413C26.4446 67.8712 26.8816 68.1281 27.3628 68.2954C27.844 68.463 28.3587 68.537 28.8735 68.513H71.9667C72.4816 68.537 72.9961 68.463 73.4775 68.2954C73.9585 68.1281 74.3957 67.8712 74.76 67.5413C75.1246 67.2117 75.4086 66.8161 75.5935 66.3809C75.7788 65.9454 75.8605 65.4798 75.834 65.014V39.1879C75.778 38.2919 75.3471 37.4488 74.6289 36.8298C73.9103 36.2109 72.9585 35.8625 71.9667 35.8555H52.8141C52.6465 35.904 52.4664 35.904 52.2985 35.8555L45.3373 31.3901H28.8735Z" fill="black"/>
<path d="M24.3429 41.354H77.0122V43.0202H24.3429V41.354Z" fill="black"/>
<path d="M37.639 54.4298C36.804 54.4298 36.1271 55.0422 36.1271 55.7977C36.1271 56.5531 36.804 57.1656 37.639 57.1656V54.4298ZM63.8663 56.7651C64.4565 56.2307 64.4565 55.3647 63.8663 54.8303L54.2445 46.125C53.6543 45.5908 52.6967 45.5908 52.1065 46.125C51.5158 46.6592 51.5158 47.5253 52.1065 48.0595L60.659 55.7977L52.1065 63.5357C51.5158 64.0701 51.5158 64.9361 52.1065 65.4701C52.6967 66.0045 53.6543 66.0045 54.2445 65.4701L63.8663 56.7651ZM37.639 57.1656H62.7971V54.4298H37.639V57.1656Z" fill="black"/>
</svg>
