<svg xmlns="http://www.w3.org/2000/svg" viewBox="0 0 128 128"><g><path  d="M103.19,68.32a4.71,4.71,0,0,0-5.34-3.95l-15-30.23a3.78,3.78,0,0,0,.49-.56,4.75,4.75,0,0,0-1-6.63,4.73,4.73,0,0,0-3.53-.85,4.7,4.7,0,0,0-3.94,4l-33.65,6a4.74,4.74,0,1,0-6.55,6.3L28.92,70.58h-.17A4.74,4.74,0,0,0,29.48,80a5,5,0,0,0,.76-.06,4.68,4.68,0,0,0,2.41-1.15L63.09,96.28A4.67,4.67,0,0,0,63,98a4.75,4.75,0,1,0,9.38-1.48,5.07,5.07,0,0,0-.37-1.18L96.2,73.2a4.76,4.76,0,0,0,2.3.61,4.84,4.84,0,0,0,.75-.06,4.75,4.75,0,0,0,3.94-5.43ZM68.69,92.57,66,70a4.83,4.83,0,0,0,1.82-1.48,4.33,4.33,0,0,0,.49-.86L93.9,70.12a4.81,4.81,0,0,0,.28.86L70,93.08A4.76,4.76,0,0,0,68.69,92.57ZM33.42,72.63a4.73,4.73,0,0,0-1.13-1.19,3.91,3.91,0,0,0-.44-.26L37.57,43h.16a4.73,4.73,0,0,0,1.33-.44l20.7,21a4.9,4.9,0,0,0-.52,1.91ZM75.35,33.05a4.55,4.55,0,0,0,1,1.22L64.43,61a4.34,4.34,0,0,0-2.53.46l-20.69-21a4.83,4.83,0,0,0,.44-1.38Zm4.81,2.44,15,30.22a3.84,3.84,0,0,0-.5.56,4.94,4.94,0,0,0-.5.86L68.59,64.64a4.74,4.74,0,0,0-1.42-2.43L79.05,35.5a3.42,3.42,0,0,0,.45,0A4.89,4.89,0,0,0,80.16,35.49ZM61.76,64.08A2.77,2.77,0,0,1,63.55,63,3.25,3.25,0,0,1,64,63a2.72,2.72,0,0,1,1.61.53,2.75,2.75,0,0,1-1.19,4.93,2.74,2.74,0,0,1-2-.49,2.69,2.69,0,0,1-1.1-1.79A2.73,2.73,0,0,1,61.76,64.08Zm15.53-34.9a2.67,2.67,0,0,1,1.79-1.1,2.09,2.09,0,0,1,.43,0,2.68,2.68,0,0,1,1.61.53,2.75,2.75,0,0,1,.61,3.84,2.74,2.74,0,0,1-1.8,1.09,2.7,2.7,0,0,1-2-.49,2.77,2.77,0,0,1-1.1-1.79A2.7,2.7,0,0,1,77.29,29.18ZM36.56,35.57l.43,0a2.74,2.74,0,0,1,1.61.52,2.75,2.75,0,0,1,.61,3.84,2.75,2.75,0,1,1-2.65-4.33ZM29.92,78a2.71,2.71,0,0,1-2-.5,2.74,2.74,0,0,1-.61-3.83,2.79,2.79,0,0,1,1.8-1.1A2.75,2.75,0,1,1,29.92,78ZM64.57,93.67,34.14,76.21a5.36,5.36,0,0,0,.09-.7l25.83-7.17a4.44,4.44,0,0,0,1.13,1.2,4.83,4.83,0,0,0,1.83.8l2.69,22.6A4.71,4.71,0,0,0,64.57,93.67Zm3.59,6.25a2.72,2.72,0,0,1-2-.49,2.73,2.73,0,0,1-.6-3.84A2.69,2.69,0,0,1,67.3,94.5a2.74,2.74,0,1,1,.86,5.42Zm32.57-29.24a2.76,2.76,0,0,1-3.84.6,2.74,2.74,0,0,1-.61-3.83,2.69,2.69,0,0,1,1.8-1.1,3.13,3.13,0,0,1,.43,0,2.75,2.75,0,0,1,2.22,4.37Z"/></g></svg>