<?xml version="1.0" encoding="utf-8"?>
<svg version="1.1" xmlns="http://www.w3.org/2000/svg" xmlns:xlink="http://www.w3.org/1999/xlink" x="0px" y="0px" style="enable-background:new 0 0 100 100;" xml:space="preserve">
<g>
	<path d="M50,22.6c15.1,0,27.4,12.3,27.4,27.4S65.1,77.4,50,77.4S22.6,65.1,22.6,50S34.9,22.6,50,22.6 M50,20.1
		c-16.5,0-29.9,13.4-29.9,29.9S33.5,79.9,50,79.9S79.9,66.5,79.9,50S66.5,20.1,50,20.1L50,20.1z"/>
</g>
<path d="M50,47.7c-2.4,0-4.2-1.8-4.2-4.2v-6.4c0-2.4,1.8-4.2,4.2-4.2s4.2,1.8,4.2,4.2v6.4C54.2,45.9,52.4,47.7,50,47.7z M50,34.9
	c-1.3,0-2.2,0.9-2.2,2.2v6.4c0,1.3,0.9,2.2,2.2,2.2c1.3,0,2.2-0.9,2.2-2.2v-6.4C52.2,35.8,51.3,34.9,50,34.9z"/>
<path d="M50,67.1c-9.4,0-17.1-7.7-17.1-17.2c0-4.5,1.8-8.8,5-12l0.1-0.1c0.6-0.5,1.3-0.8,2.3-0.9l0.1,0c1.8,0,3.4,1.6,3.4,3.4
	c0,0.9-0.4,1.8-1.1,2.5c-2,1.8-3.1,4.4-3.1,7.2c0,5.6,4.6,10.2,10.2,10.2S60,55.6,60,50c0-2.8-1-5.3-2.9-7.2L57,42.7
	c-0.5-0.6-0.8-1.3-0.9-2.3l0-0.1c0-1.8,1.5-3.4,3.3-3.4c0.7-0.1,1.6,0,2.6,1c3.2,3.2,5,7.5,5,12.1c0,4.6-1.8,8.9-5.1,12.1
	C58.8,65.3,54.5,67.1,50,67.1z M39.3,39.4c-2.8,2.8-4.4,6.6-4.4,10.5c0,8.4,6.8,15.2,15.1,15.2c4,0,7.8-1.6,10.5-4.4
	C63.4,57.9,65,54.1,65,50c0-4.1-1.5-7.9-4.4-10.7c-0.4-0.4-0.8-0.4-1-0.4l-0.1,0c-0.7,0-1.4,0.6-1.4,1.3c0.1,0.5,0.2,0.9,0.5,1.2
	c2.2,2.2,3.4,5.3,3.4,8.6c0,6.7-5.5,12.2-12.2,12.2c-6.7,0-12.2-5.5-12.2-12.2c0-3.3,1.4-6.5,3.7-8.6c0.3-0.3,0.5-0.7,0.5-1.1
	c0-0.7-0.6-1.4-1.3-1.4C39.9,39,39.6,39.1,39.3,39.4z"/>
</svg>
