<svg xmlns="http://www.w3.org/2000/svg" viewBox="0 0 128 128"><defs><style>.cls-1{fill:#3c3c3b;}</style></defs><title>stroke_camera</title><g id="camera"><path class="cls-1" d="M88.7,44.85H75.36L74,40.79c-.59-1.86-1.7-4.32-4.58-4.32H58.78c-2.5,0-3.83,1.25-4.58,4.33l-1.55,4.05H41.21a7.57,7.57,0,0,0-7.67,7.45V84.89A7.25,7.25,0,0,0,40.88,92H87.51a6.86,6.86,0,0,0,6.95-6.75V50.46A5.69,5.69,0,0,0,88.7,44.85Zm-32.61-3.4a.5.5,0,0,0,0-.13c.63-2.66,1.43-2.85,2.65-2.85H69.4c.91,0,1.86.35,2.68,2.94l1.09,3.2H54.88Zm-14.88,6.4H88.7a2.69,2.69,0,0,1,2.76,2.61V53H36.54V52.3A4.57,4.57,0,0,1,41.21,47.85ZM87.51,89H40.88a4.25,4.25,0,0,1-4.34-4.14V54H91.46V85.28A3.86,3.86,0,0,1,87.51,89Z"/><path class="cls-1" d="M64,58.14A13.45,13.45,0,1,0,77.45,71.58,13.46,13.46,0,0,0,64,58.14Zm0,25.39a11.95,11.95,0,1,1,12-12A12,12,0,0,1,64,83.53Z"/><path class="cls-1" d="M64,62.81a8.78,8.78,0,1,0,8.78,8.77A8.78,8.78,0,0,0,64,62.81Zm0,16.55a7.78,7.78,0,1,1,7.78-7.78A7.79,7.79,0,0,1,64,79.36Z"/><circle class="cls-1" cx="82.44" cy="58.34" r="1.31"/><circle class="cls-1" cx="87.19" cy="58.34" r="1.31"/></g></svg>