<?xml version="1.0" encoding="utf-8"?>
<svg version="1.1" id="Layer_1" xmlns="http://www.w3.org/2000/svg" xmlns:xlink="http://www.w3.org/1999/xlink" x="0px" y="0px"
	 viewBox="0 0 100 100" style="enable-background:new 0 0 100 100;" xml:space="preserve">
<style type="text/css">
	.st0{fill:#FFFFFF;}
</style>
<path d="M75,24H25.1c-4.2,0-8,4.1-8,8.6v35.3c0.1,4.4,3.6,8,8,8.1H75c4.4-0.1,7.9-3.7,7.9-8.1V32.6C82.9,28.5,79.5,24,75,24z
	 M25.1,27H75c2.7,0,4.9,3,4.9,5.6v1.3H20.1v-1.3C20.1,29.8,22.6,27,25.1,27z M75,73H25.1c-2.5-0.1-4.5-2-5-4.4h59.7
	C79.5,71,77.5,72.9,75,73z"/>
<circle cx="26.2" cy="30.5" r="1.3"/>
<path d="M30.5,31.9c0.7,0,1.3-0.6,1.3-1.3c0-0.7-0.6-1.3-1.3-1.3c-0.7,0-1.3,0.6-1.3,1.3c0,0,0,0,0,0C29.2,31.3,29.8,31.9,30.5,31.9
	z M34.8,31.9c0.7,0,1.3-0.6,1.3-1.3s-0.6-1.3-1.3-1.3s-1.3,0.6-1.3,1.3S34,31.9,34.8,31.9L34.8,31.9z"/>
<path class="st0" d="M39.2,51.4l5-5c0.5-0.5,0.5-1.3,0-1.8c-0.5-0.5-1.3-0.5-1.8,0l-5.9,5.9c-0.5,0.5-0.5,1.3,0,1.8c0,0,0,0,0,0
	l5.9,5.9c0.5,0.5,1.3,0.5,1.8,0c0.5-0.5,0.5-1.3,0-1.8L39.2,51.4z"/>
<path class="st0" d="M62.8,50.5l-5.9-5.9c-0.5-0.5-1.3-0.6-1.8-0.1c-0.5,0.5-0.6,1.3-0.1,1.8c0,0,0.1,0.1,0.1,0.1l5,5l-5,5
	c-0.5,0.5-0.6,1.3-0.1,1.8c0.5,0.5,1.3,0.6,1.8,0.1c0,0,0.1-0.1,0.1-0.1l5.9-5.9c0.2-0.2,0.4-0.6,0.4-0.9
	C63.1,51.1,63,50.8,62.8,50.5z"/>
<path class="st0" d="M51,42.8c-0.7-0.1-1.4,0.4-1.6,1.2l-2.4,14.4c-0.1,0.8,0.4,1.5,1.2,1.6c0.8,0.1,1.5-0.4,1.6-1.1l0,0l2.4-14.4
	C52.3,43.7,51.8,43,51,42.8C51,42.9,51,42.9,51,42.8z"/>
</svg>
