<?xml version="1.0" encoding="utf-8"?>
<svg version="1.1" xmlns="http://www.w3.org/2000/svg" xmlns:xlink="http://www.w3.org/1999/xlink" viewBox="0 0 18.4 21" xml:space="preserve">
<path opacity="0.45" d="M16.9,8V7.4c0-0.7-0.5-1.4-1.3-1.4c0,0,0,0,0,0h-5.2l-2-1.3H3.8C3.1,4.7,2.5,5.3,2.5,6v2H16.9z"/>
<path opacity="0.1" d="M2.5,8.3V15c0,0.7,0.6,1.3,1.3,1.3c0,0,0,0,0,0h11.7c0.7,0,1.3-0.6,1.3-1.3c0,0,0,0,0,0V8.3H2.5z"/>
<path d="M15.6,16.6H3.8c-0.9,0-1.6-0.7-1.6-1.5c0,0,0,0,0,0V6c0-0.9,0.7-1.6,1.5-1.6c0,0,0,0,0,0h4.5c0,0,0.1,0,0.1,0l1.9,1.3h5.1
	c0.9,0,1.5,0.7,1.6,1.6V15C17.1,15.9,16.4,16.6,15.6,16.6C15.6,16.6,15.6,16.6,15.6,16.6z M3.8,4.9c-0.6,0-1,0.4-1.1,0.9
	c0,0,0,0.1,0,0.1v9c0,0.6,0.4,1,0.9,1c0,0,0.1,0,0.1,0h11.7c0.6,0,1-0.4,1.1-0.9c0,0,0-0.1,0-0.1V7.2c0-0.6-0.5-1-1.1-1h-5.2
	c0,0-0.1,0-0.1,0L8.3,4.9H3.8z"/>
<path d="M2.6,7.9h14.3v0.5H2.6V7.9z"/>
<rect x="9.5" y="1.6" width="0.5" height="1.7"/>
<polygon points="5,3.8 3.9,2.4 4.3,2.3 5.5,3.7 "/>
<polygon points="15.7,2.4 14.5,3.8 14.1,3.7 15.3,2.3 "/>
<rect x="9.5" y="17.6" width="0.5" height="1.7"/>
<polygon points="14.5,17.2 15.7,18.6 15.3,18.7 14.1,17.3 "/>
<polygon points="3.9,18.6 5,17.2 5.5,17.3 4.3,18.7 "/>
</svg>
