<?xml version="1.0" encoding="utf-8"?>
<svg version="1.1" xmlns="http://www.w3.org/2000/svg" xmlns:xlink="http://www.w3.org/1999/xlink" viewBox="0 0 100 100" xml:space="preserve">
<path d="M89.2,54.3c-0.4-2.6-2.7-4.4-5.3-4c0,0,0,0,0,0l-15-30.2c0.2-0.2,0.3-0.4,0.5-0.6c1.5-2.1,1.1-5.1-1-6.6
	c-1-0.7-2.3-1-3.5-0.9c-2.1,0.3-3.7,1.9-3.9,4l-33.7,6c-1.2-2.3-4.1-3.2-6.4-2s-3.2,4.1-2,6.4c0.4,0.8,1.1,1.5,1.9,1.9l-5.8,28.2
	h-0.2c-2.6,0.4-4.3,2.8-3.9,5.4c0.4,2.3,2.3,4,4.7,4c0.3,0,0.5,0,0.8-0.1c0.9-0.1,1.7-0.5,2.4-1.2l30.4,17.5
	C49,82.8,48.9,83.4,49,84c0.3,2.6,2.7,4.4,5.3,4.1s4.4-2.7,4.1-5.3c0-0.1,0-0.2,0-0.3c-0.1-0.4-0.2-0.8-0.4-1.2l24.2-22.1
	c0.7,0.4,1.5,0.6,2.3,0.6c0.3,0,0.5,0,0.8-0.1C87.8,59.3,89.6,56.9,89.2,54.3z M54.7,78.6L52,56c0.7-0.3,1.3-0.8,1.8-1.5
	c0.2-0.3,0.4-0.6,0.5-0.9l25.6,2.5c0.1,0.3,0.2,0.6,0.3,0.9L56,79.1C55.6,78.8,55.2,78.7,54.7,78.6z M19.4,58.6
	c-0.3-0.5-0.7-0.9-1.1-1.2c-0.1-0.1-0.3-0.2-0.4-0.3L23.6,29h0.2c0.5-0.1,0.9-0.2,1.3-0.4l20.7,21c-0.3,0.6-0.5,1.2-0.5,1.9
	L19.4,58.6z M61.3,19c0.3,0.5,0.6,0.9,1,1.2L50.4,47c-0.9-0.1-1.8,0.1-2.5,0.5l-20.7-21c0.2-0.4,0.4-0.9,0.4-1.4L61.3,19z
	 M66.2,21.5l15,30.2c-0.2,0.2-0.4,0.4-0.5,0.6c-0.2,0.3-0.4,0.6-0.5,0.9l-25.6-2.5c-0.2-0.9-0.7-1.8-1.4-2.4l11.9-26.7
	c0.1,0,0.3,0,0.4,0C65.7,21.5,65.9,21.5,66.2,21.5z M50.6,79.7L20.1,62.2c0-0.2,0.1-0.5,0.1-0.7l25.8-7.2c0.3,0.5,0.7,0.9,1.1,1.2
	c0.5,0.4,1.2,0.7,1.8,0.8l2.7,22.6C51.3,79.1,50.9,79.4,50.6,79.7z"/>
</svg>
