<svg xmlns="http://www.w3.org/2000/svg" viewBox="0 0 100 100"><path d="M78.27 36.06a.8.8 0 01-.345.207 18.125 18.125 0 01-4.532.706.712.712 0 00-.521.216L60.306 49.81a.747.747 0 00-.248.65c.3 2.28.177 4.596-.36 6.831a.802.802 0 01-1.314.353l-7.877-7.893-13.098 13.113L32.5 64.5l1.634-4.915 9.827-9.831 3.301-3.252-7.915-7.918a.803.803 0 01.353-1.315 18.71 18.71 0 016.823-.36.745.745 0 00.649-.21L59.81 24.12a.714.714 0 00.216-.521c.043-1.531.28-3.051.705-4.523a.802.802 0 011.313-.36l16.242 16.237a.802.802 0 01-.015 1.107z"/><path d="M47.667 31.974a15.616 15.616 0 00-13.19-3.717A15.62 15.62 0 0021.65 43.24a13.38 13.38 0 00-11.58 13.39C10.07 70.36 21.81 72 22.46 72h56.46c4.09 0 11-6.52 11-13.18S85.58 46 79.08 46c-1.876 0-3.723.46-5.38 1.34.049-.445.072-.892.07-1.34a12.62 12.62 0 00-.814-4.643l-9.805 9.848a21.777 21.777 0 01-.537 6.788l-.02.085-.025.083a3.802 3.802 0 01-6.235 1.673l-.038-.035-5.79-5.802-11.475 11.49L28.5 68.5l3.01-10.535 10.337-10.34 1.157-1.14-5.814-5.816-.035-.037a3.802 3.802 0 011.673-6.233l.084-.026.085-.02a21.711 21.711 0 016.818-.535l1.852-1.844z"/></svg>
