<?xml version="1.0" encoding="utf-8"?>
<svg version="1.1" xmlns="http://www.w3.org/2000/svg" xmlns:xlink="http://www.w3.org/1999/xlink" viewBox="0 0 100 100" xml:space="preserve">
<path d="M86.6,70.6c-0.4-2.6-2.8-4.3-5.4-3.9c-1.1,0.2-2.1,0.7-2.8,1.6l-22.9-9.4c0-0.3,0-0.7,0-1c-0.1-0.4-0.2-0.8-0.4-1.2
	l11.8-10.8c2.3,1.2,5.2,0.3,6.4-2c1.2-2.3,0.3-5.2-2-6.4s-5.2-0.3-6.4,2c-0.5,0.9-0.6,1.9-0.5,2.9c0.1,0.5,0.2,0.9,0.4,1.3L53,54.4
	c-0.2-0.1-0.5-0.2-0.8-0.3L52,18.2c2.3-0.6,3.8-2.9,3.4-5.3C55,10.3,52.5,8.6,50,9c-2.6,0.4-4.3,2.9-3.9,5.4
	c0.2,1.2,0.9,2.3,1.9,3.1c0.3,0.2,0.7,0.4,1.1,0.6l0.3,36c-0.9,0.3-1.6,0.8-2.2,1.5l-24.2-8.8c0-0.3,0-0.6,0-0.9
	c-0.4-2.6-2.8-4.4-5.4-4c-2.6,0.4-4.4,2.8-4,5.4c0.4,2.6,2.8,4.4,5.4,4c0,0,0,0,0,0c1.2-0.2,2.3-0.8,3-1.8L46,58.4
	c0,0.3,0,0.7,0.1,1c0,0.1,0.1,0.3,0.1,0.4l-13,7.8c-0.1-0.1-0.2-0.2-0.3-0.2c-2.1-1.5-5.1-1-6.6,1.1c-1.5,2.1-1,5.1,1.1,6.6
	c0.8,0.6,1.8,0.9,2.7,0.9c0.2,0,0.5,0,0.7-0.1c2.6-0.4,4.4-2.8,4-5.4c0,0,0,0,0,0c0-0.1-0.1-0.2-0.1-0.3l13-7.9l0.2,0.1
	c0.4,0.3,0.9,0.5,1.4,0.7l0.1,18.8c-2.5,0.8-3.8,3.5-3,6c0.7,1.9,2.5,3.2,4.5,3.2c0.2,0,0.5,0,0.7-0.1c2.6-0.4,4.3-2.8,3.9-5.4
	c-0.3-1.8-1.5-3.2-3.2-3.8L52.3,63c0.8-0.3,1.5-0.8,2-1.5L77.2,71c0,0.4,0,0.7,0,1.1c0.4,2.3,2.3,4,4.7,4c0.2,0,0.5,0,0.7-0.1
	C85.2,75.6,87,73.2,86.6,70.6C86.6,70.6,86.6,70.6,86.6,70.6z"/>
</svg>
