<?xml version="1.0" encoding="utf-8"?>
<svg version="1.1" xmlns="http://www.w3.org/2000/svg" xmlns:xlink="http://www.w3.org/1999/xlink"
	 viewBox="0 0 100 100" xml:space="preserve">
<path d="M35.4,79c-3.7,0-7.3-1.4-10.1-4.1l-0.1-0.1c-2.7-2.7-4.1-6.3-4.1-10.1c0-3.8,1.5-7.4,4.2-10.1l10.3-10.3
	c7-6.9,15.1-7.8,20.6-2.3c1.8,1.8,1.8,4.8,0,6.6c-1.8,1.8-4.8,1.8-6.6,0c-2.2-2.1-5.5,0.5-7.3,2.3L31.8,61.3c-1.9,1.9-1.9,5,0,6.9
	c1.9,1.9,5.1,1.9,7.1,0l2.8-2.7c1.9-1.7,4.6-1.7,6.4,0c0.9,0.8,1.5,2,1.5,3.3c0.1,1.3-0.4,2.4-1.2,3.4l-2.8,2.8
	C42.7,77.6,39,79,35.4,79z M47.8,41c-3.3,0-7,1.7-10.4,5.2L27,56.4c-2.2,2.2-3.5,5.2-3.5,8.3s1.2,6.1,3.4,8.3l0.1,0.1
	c4.6,4.6,12.1,4.6,16.8,0l2.8-2.8c0.4-0.4,0.6-0.9,0.5-1.5c0-0.6-0.3-1.1-0.7-1.5c-0.8-0.8-2.1-0.8-3,0l0,0l0,0L40.6,70
	c-2.9,2.9-7.7,2.9-10.6,0c-2.9-2.9-2.9-7.5,0-10.4l10.4-10.3c4.2-4.2,8.2-5,10.9-2.3c0.9,0.8,2.2,0.8,3.1,0c0.8-0.9,0.8-2.2,0-3.1
	C52.5,41.9,50.2,41,47.8,41z M52.5,62.2c-3.3-0.1-6.4-1.4-8.6-3.8c-0.1-0.1-0.2-0.2-0.3-0.3c-0.8-0.9-1.3-2.1-1.2-3.4
	s0.6-2.4,1.5-3.3c0.9-0.8,2.1-1.3,3.4-1.2c1.3,0.1,2.4,0.6,3.3,1.5c0.8,0.8,2.5,2.4,6.6-1.7l11.1-11c0.9-1,1.4-2.2,1.4-3.5
	c0-1.3-0.5-2.5-1.4-3.4c-1.6-1.6-4.3-2.8-6.4-0.7L58.3,35c-0.1,0.1-0.2,0.2-0.3,0.3c-0.9,0.8-2.1,1.3-3.4,1.2
	c-1.3-0.1-2.4-0.6-3.2-1.5c-0.8-0.9-1.3-2.1-1.2-3.4s0.6-2.4,1.5-3.2l3.5-3.4c5.5-5.4,13.7-5.1,19.6,0.7l1,1l-0.1,0.1
	c4.7,5.6,4.3,14-0.9,19.2l-11,10.9C60.2,60.3,56.3,62.2,52.5,62.2z M47,52.8c-0.6,0-1.1,0.2-1.5,0.6c-0.4,0.4-0.7,0.9-0.7,1.5
	c0,0.6,0.2,1.1,0.6,1.6c0,0,0.1,0.1,0.1,0.1l0.1,0.1c1.8,1.9,4.2,3,6.8,3c3.1,0,6.4-1.6,9.5-4.7l11-10.9c4.6-4.6,4.6-12,0.1-16.6
	l-1-1l0,0c-4.8-4-10.9-3.9-15.1,0.2l-3.5,3.5c-0.5,0.4-0.7,1-0.8,1.6c0,0.6,0.2,1.1,0.6,1.6c0.4,0.4,0.9,0.7,1.5,0.7
	c0.6,0,1.1-0.2,1.6-0.6c0,0,0.1-0.1,0.1-0.1l3.5-3.5c3.2-3.1,7.3-1.8,9.9,0.7c1.4,1.4,2.2,3.2,2.2,5.2s-0.7,3.8-2.1,5.2l-0.1,0.1
	l-11,11c-5.9,5.9-9.1,2.7-10.2,1.7C48.3,53.1,47.7,52.8,47,52.8C47.1,52.8,47.1,52.8,47,52.8z"/>
</svg>
