<svg xmlns="http://www.w3.org/2000/svg" viewBox="0 0 100 100"><path d="M75.425 37.767a.8.8 0 00.36-1.315l-16.24-16.237a.8.8 0 00-1.314.36 18.19 18.19 0 00-.705 4.523.714.714 0 01-.216.52l-8.391 8.354A17.002 17.002 0 0034.94 26.59 17.25 17.25 0 0018 42 14.84 14.84 0 006.33 56.6c0 13.89 11.56 16.81 13.84 16.81h56.2c5.21 0 12.47-7.37 12.47-14.62 0-7.03-4.61-14.29-12.31-14.29a12.83 12.83 0 00-3.81.57 14.07 14.07 0 00-2.043-6.567.712.712 0 01.215-.03 18.12 18.12 0 004.533-.706zm-28.631-1.68L44.672 38.2a.746.746 0 01-.649.208 18.71 18.71 0 00-6.823.361.802.802 0 00-.353 1.315l7.915 7.918-3.301 3.252-9.827 9.83L30 66l4.91-1.636 13.097-13.113 7.877 7.893a.801.801 0 001.314-.353 18.78 18.78 0 00.36-6.831.745.745 0 01.248-.65l10.528-10.574c.684 1.51 1.018 3.22 1.406 5.213l.01.051c.186.957.234 1.557.298 2.36.028.34.057.715.102 1.17l1.73-.91a9.86 9.86 0 014.65-1.16c5.83 0 9.31 5.74 9.31 11.29 0 6.04-6.51 11.66-9.47 11.66H20.22c-.11 0-10.89-1.26-10.89-13.81a11.89 11.89 0 018-11.32C19.046 44.687 21 45 21 45v-2.25a14 14 0 0125.794-6.662z"/></svg>
