<?xml version="1.0" encoding="utf-8"?>
<svg version="1.1" xmlns="http://www.w3.org/2000/svg" xmlns:xlink="http://www.w3.org/1999/xlink" viewBox="0 0 100 100" xml:space="preserve">
<path d="M87.5,40.5c2.7,0,4.5,0.8,6.6,2.9C96,45.2,97,47.6,97,50s-1,4.8-2.9,6.6s-4.2,2.9-6.6,2.9s-4.8-1-6.6-2.9S78,52.4,78,50
	c0-2.7,0.8-4.5,2.9-6.6C82.7,41.5,85.1,40.5,87.5,40.5 M50,40.5c2.7,0,4.5,0.8,6.6,2.9c1.9,1.9,2.9,4.2,2.9,6.6s-1,4.8-2.9,6.6
	s-4.2,2.9-6.6,2.9s-4.8-1-6.6-2.9s-2.9-4.2-2.9-6.6c0-2.7,0.8-4.5,2.9-6.6C45.2,41.5,47.6,40.5,50,40.5 M12.5,40.5
	c2.7,0,4.5,0.8,6.6,2.9C21,45.2,22,47.6,22,50s-1,4.8-2.9,6.6c-1.9,1.9-4.2,2.9-6.6,2.9s-4.8-1-6.6-2.9S3,52.4,3,50
	c0-2.7,0.8-4.5,2.9-6.6C7.7,41.5,10.1,40.5,12.5,40.5 M87.5,37.5c-3.1,0-6.2,1.2-8.8,3.8S75,46.2,75,50c0,3.1,1.2,6.2,3.8,8.8
	s5.6,3.8,8.8,3.8s6.2-1.2,8.8-3.8s3.8-5.6,3.8-8.8s-1.2-6.2-3.8-8.8S91.2,37.5,87.5,37.5L87.5,37.5z M50,37.5
	c-3.1,0-6.2,1.2-8.8,3.8s-3.8,5-3.8,8.8c0,3.1,1.2,6.2,3.8,8.8s5.6,3.8,8.8,3.8s6.2-1.2,8.8-3.8s3.8-5.6,3.8-8.8s-1.2-6.2-3.8-8.8
	S53.8,37.5,50,37.5L50,37.5z M12.5,37.5c-3.1,0-6.2,1.2-8.8,3.8S0,46.2,0,50c0,3.1,1.2,6.2,3.8,8.8s5.6,3.8,8.8,3.8s6.2-1.2,8.8-3.8
	S25,53.1,25,50s-1.2-6.2-3.8-8.8S16.2,37.5,12.5,37.5L12.5,37.5z"/>
</svg>
