<svg viewBox="0 0 58 58" xmlns="http://www.w3.org/2000/svg" xmlns:xlink="http://www.w3.org/1999/xlink"><defs><path id="a" d="M0 .256h30.593v25.376H0z"/><path id="c" d="M0 49h30.594V.416H0z"/></defs><g><path d="M15.751 8.889l2.71 4.848 1.746-.976-2.71-4.85zM28.078 10.849h2v-5.85h-2zM39.029 13.737l-1.746-.976 2.71-4.85 1.746.978zM15.751 49.697l1.746.976 2.71-4.85-1.746-.978zM28.078 53.583h2v-5.848h-2zM39.993 50.673l-2.71-4.85 1.746-.976 2.71 4.85z"/><g transform="translate(14 16.583)"><path d="M3.6 2.256A1.6 1.6 0 0 0 2 3.852v18.182c0 .88.717 1.598 1.6 1.598h23.395a1.6 1.6 0 0 0 1.598-1.598V6.45a1.6 1.6 0 0 0-1.598-1.598H16.597a.998.998 0 0 1-.556-.168l-3.646-2.428H3.6zm23.395 23.376H3.6A3.604 3.604 0 0 1 0 22.034V3.852A3.603 3.603 0 0 1 3.6.256h9.098c.198 0 .392.058.556.168L16.9 2.852h10.096a3.602 3.602 0 0 1 3.598 3.598v15.584a3.602 3.602 0 0 1-3.598 3.598z"/></g><g transform="translate(14 4.583)"><path d="M1.14 21.252h28.594v-2H1.14z"/></g></g></svg>
