<?xml version="1.0" encoding="utf-8"?>
<svg version="1.1" xmlns="http://www.w3.org/2000/svg" xmlns:xlink="http://www.w3.org/1999/xlink" viewBox="0 0 100 100" xml:space="preserve">
<path d="M75.1,37.2L75.1,37.2L56.5,17.8H30c-3,0-5.5,2.5-5.5,5.5v53.4c0,3,2.5,5.5,5.5,5.5h40c3,0,5.5-2.5,5.5-5.5V37.5L75.1,37.2z
	 M56.9,22.5l14,14.6h-7.1c-4,0-6.9-2.5-6.9-6V22.5z M70,79.2H30c-1.4,0-2.5-1.1-2.5-2.5V23.3c0-1.4,1.1-2.5,2.5-2.5h24.9v10.3
	c0,4.6,3.8,8,8.9,8h8.6v37.6C72.5,78.1,71.4,79.2,70,79.2z"/>
<path d="M44.9,61.2l-7.6,8.1v0.1H63v2.5H34.8V51.4h2.5v14.1l7.5-8l1.9,1.7l3.8,3.5l8.2-8.8h-3.4v-2.5H63v7.7h-2.6v-3.3l-9.9,10.6
	l-1.9-1.8C48.7,64.6,44.9,61.2,44.9,61.2z"/>
</svg>
