<?xml version="1.0" encoding="utf-8"?>
<svg version="1.1" xmlns="http://www.w3.org/2000/svg" xmlns:xlink="http://www.w3.org/1999/xlink" viewBox="0 0 100 100" xml:space="preserve">
<path d="M50,22.6c7.3,0,14.2,2.8,19.4,8c5.2,5.2,8,12,8,19.4c0,7.3-2.9,14.2-8,19.3c-5.2,5.2-12,8-19.4,8s-14.2-2.8-19.4-8
	c-10.7-10.7-10.7-28,0-38.7C35.8,25.5,42.7,22.6,50,22.6 M50,20.1c-7.6,0-15.3,2.9-21.1,8.8c-11.7,11.7-11.7,30.6,0,42.3
	c5.8,5.8,13.5,8.8,21.1,8.8s15.3-2.9,21.1-8.8c11.7-11.7,11.7-30.6,0-42.2c0,0,0,0,0,0C65.3,23,57.6,20.1,50,20.1L50,20.1z"/>
<path d="M53.5,67.2h-7V53.5H32.8v-7h13.7V32.8h7v13.7h13.7v7H53.5V67.2z M48,65.7h4V52h13.7v-4H52V34.3h-4V48H34.3v4H48V65.7z"/>
</svg>
