<?xml version="1.0" encoding="UTF-8"?>
<svg width="65px" height="102px" viewBox="0 0 65 102" version="1.1" xmlns="http://www.w3.org/2000/svg" xmlns:xlink="http://www.w3.org/1999/xlink">
    <!-- Generator: Sketch 55.2 (78181) - https://sketchapp.com -->
    <title>Artboard</title>
    <desc>Created with Sketch.</desc>
    <g id="Artboard" stroke="none" stroke-width="1" fill="none" fill-rule="evenodd">
        <path d="M52.62,33.38 L35.17,33.38 C33.6785776,33.3786225 32.3289485,32.4958709 31.73,31.13 L29.45,26.3 C28.5479552,24.0112047 26.3401309,22.5049691 23.88,22.5 L11.56,22.5 C5.19,22.5 0,28 0,34.68 L0,67.32 C0,74 5.19,79.5 11.56,79.5 L52.62,79.5 C58.99,79.5 64.18,74.04 64.18,67.32 L64.18,45.56 C64.18,38.84 58.99,33.38 52.62,33.38 Z M11.56,25.1 L23.88,25.1 C25.3135498,25.1102268 26.5913978,26.0059146 27.09,27.35 L29.43,32.3 C30.4568992,34.5481843 32.6984,35.9930542 35.17,36 L52.62,36 C57.3202344,36.1490375 61.1551313,39.8115795 61.52,44.5 L2.6,44.5 L2.6,34.7 C2.6,29.4 6.62,25.1 11.56,25.1 Z M52.62,76.9 L11.56,76.9 C6.62,76.9 2.56,72.6 2.56,67.32 L2.56,46 L61.5600743,46 L61.5600743,67.32 C61.58,72.6 57.56,76.9 52.62,76.9 L52.62,76.9 Z" id="Shape" fill="#000000" fill-rule="nonzero"></path>
        <rect id="Rectangle" fill="#000000" transform="translate(32.090000, 5.000000) rotate(90.000000) translate(-32.090000, -5.000000) " x="27.09" y="4" width="10" height="2"></rect>
        <rect id="Rectangle-Copy-2" fill="#000000" transform="translate(11.090000, 11.000000) rotate(-119.000000) translate(-11.090000, -11.000000) " x="6.09" y="10" width="10" height="2"></rect>
        <rect id="Rectangle-Copy" fill="#000000" transform="translate(53.090000, 11.000000) rotate(119.000000) translate(-53.090000, -11.000000) " x="48.09" y="10" width="10" height="2"></rect>
        <rect id="Rectangle" fill="#000000" transform="translate(32.090000, 97.000000) scale(1, -1) rotate(90.000000) translate(-32.090000, -97.000000) " x="27.09" y="96" width="10" height="2"></rect>
        <rect id="Rectangle-Copy-2" fill="#000000" transform="translate(11.090000, 91.000000) scale(1, -1) rotate(-119.000000) translate(-11.090000, -91.000000) " x="6.09" y="90" width="10" height="2"></rect>
        <rect id="Rectangle-Copy" fill="#000000" transform="translate(53.090000, 91.000000) scale(1, -1) rotate(119.000000) translate(-53.090000, -91.000000) " x="48.09" y="90" width="10" height="2"></rect>
    </g>
</svg>